<?xml version="1.0" encoding="us-ascii" standalone="no"?><svg xmlns="http://www.w3.org/2000/svg" xmlns:xlink="http://www.w3.org/1999/xlink" contentStyleType="text/css" height="1935px" preserveAspectRatio="none" style="width:3996px;height:1935px;background:#FFFFFF;" version="1.1" viewBox="0 0 3996 1935" width="3996px" zoomAndPan="magnify"><defs/><g><text fill="#000000" font-family="sans-serif" font-size="14" font-weight="bold" lengthAdjust="spacing" textLength="111" x="1935.965" y="22.9951">ProyectoFinal</text><!--cluster src--><g id="cluster_src"><path d="M8.5,43.2969 L34.5,43.2969 A3.75,3.75 0 0 1 37,45.7969 L44,65.5938 L3977.5,65.5938 A2.5,2.5 0 0 1 3980,68.0938 L3980,1925.7969 A2.5,2.5 0 0 1 3977.5,1928.2969 L8.5,1928.2969 A2.5,2.5 0 0 1 6,1925.7969 L6,45.7969 A2.5,2.5 0 0 1 8.5,43.2969 " fill="none" style="stroke:#000000;stroke-width:1.5;"/><line style="stroke:#000000;stroke-width:1.5;" x1="6" x2="44" y1="65.5938" y2="65.5938"/><text fill="#000000" font-family="sans-serif" font-size="14" font-weight="bold" lengthAdjust="spacing" textLength="25" x="10" y="58.292">src</text></g><!--cluster models--><g id="cluster_models"><path d="M2030.5,1438.2969 L2089.5,1438.2969 A3.75,3.75 0 0 1 2092,1440.7969 L2099,1460.5938 L2604.5,1460.5938 A2.5,2.5 0 0 1 2607,1463.0938 L2607,1697.7969 A2.5,2.5 0 0 1 2604.5,1700.2969 L2030.5,1700.2969 A2.5,2.5 0 0 1 2028,1697.7969 L2028,1440.7969 A2.5,2.5 0 0 1 2030.5,1438.2969 " fill="none" style="stroke:#000000;stroke-width:1.5;"/><line style="stroke:#000000;stroke-width:1.5;" x1="2028" x2="2099" y1="1460.5938" y2="1460.5938"/><text fill="#000000" font-family="sans-serif" font-size="14" font-weight="bold" lengthAdjust="spacing" textLength="58" x="2032" y="1453.292">models</text></g><!--cluster interface--><g id="cluster_interface"><path d="M3438.5,1724.2969 L3513.5,1724.2969 A3.75,3.75 0 0 1 3516,1726.7969 L3523,1746.5938 L3681.5,1746.5938 A2.5,2.5 0 0 1 3684,1749.0938 L3684,1901.7969 A2.5,2.5 0 0 1 3681.5,1904.2969 L3438.5,1904.2969 A2.5,2.5 0 0 1 3436,1901.7969 L3436,1726.7969 A2.5,2.5 0 0 1 3438.5,1724.2969 " fill="none" style="stroke:#000000;stroke-width:1.5;"/><line style="stroke:#000000;stroke-width:1.5;" x1="3436" x2="3523" y1="1746.5938" y2="1746.5938"/><text fill="#000000" font-family="sans-serif" font-size="14" font-weight="bold" lengthAdjust="spacing" textLength="74" x="3440" y="1739.292">interface</text></g><!--cluster db--><g id="cluster_db"><path d="M2631,955.2969 C2631,945.2969 3280.5,945.2969 3280.5,945.2969 C3280.5,945.2969 3930,945.2969 3930,955.2969 L3930,1621.2969 C3930,1631.2969 3280.5,1631.2969 3280.5,1631.2969 C3280.5,1631.2969 2631,1631.2969 2631,1621.2969 L2631,955.2969 " fill="none" style="stroke:#181818;stroke-width:1.0;"/><path d="M2631,955.2969 C2631,965.2969 3280.5,965.2969 3280.5,965.2969 C3280.5,965.2969 3930,965.2969 3930,955.2969 " fill="none" style="stroke:#181818;stroke-width:1.0;"/><text fill="#000000" font-family="sans-serif" font-size="14" font-weight="bold" lengthAdjust="spacing" textLength="20" x="3270.5" y="980.292">db</text></g><!--cluster repositorys--><g id="cluster_repositorys"><path d="M2963.5,1003.2969 L3057.5,1003.2969 A3.75,3.75 0 0 1 3060,1005.7969 L3067,1025.5938 L3903.5,1025.5938 A2.5,2.5 0 0 1 3906,1028.0938 L3906,1604.7969 A2.5,2.5 0 0 1 3903.5,1607.2969 L2963.5,1607.2969 A2.5,2.5 0 0 1 2961,1604.7969 L2961,1005.7969 A2.5,2.5 0 0 1 2963.5,1003.2969 " fill="none" style="stroke:#000000;stroke-width:1.5;"/><line style="stroke:#000000;stroke-width:1.5;" x1="2961" x2="3067" y1="1025.5938" y2="1025.5938"/><text fill="#000000" font-family="sans-serif" font-size="14" font-weight="bold" lengthAdjust="spacing" textLength="93" x="2965" y="1018.292">repositorys</text></g><!--cluster conexion--><g id="cluster_conexion"><path d="M2657.5,1039.2969 L2730.5,1039.2969 A3.75,3.75 0 0 1 2733,1041.7969 L2740,1061.5938 L2934.5,1061.5938 A2.5,2.5 0 0 1 2937,1064.0938 L2937,1411.7969 A2.5,2.5 0 0 1 2934.5,1414.2969 L2657.5,1414.2969 A2.5,2.5 0 0 1 2655,1411.7969 L2655,1041.7969 A2.5,2.5 0 0 1 2657.5,1039.2969 " fill="none" style="stroke:#000000;stroke-width:1.5;"/><line style="stroke:#000000;stroke-width:1.5;" x1="2655" x2="2740" y1="1061.5938" y2="1061.5938"/><text fill="#000000" font-family="sans-serif" font-size="14" font-weight="bold" lengthAdjust="spacing" textLength="72" x="2659" y="1054.292">conexion</text></g><!--cluster screens--><g id="cluster_screens"><rect fill="none" height="1012.5" rx="2.5" ry="2.5" style="stroke:#181818;stroke-width:1.0;" width="1312" x="1295" y="114.2969"/><path d="M1367,114.2969 L1367,123.5938 L1357,133.5938 L1295,133.5938 " fill="none" style="stroke:#181818;stroke-width:1.0;"/><text fill="#000000" font-family="sans-serif" font-size="14" font-weight="bold" lengthAdjust="spacing" textLength="62" x="1298" y="128.292">screens</text></g><!--cluster helpers--><g id="cluster_helpers"><rect fill="none" height="132" rx="2.5" ry="2.5" style="stroke:#181818;stroke-width:1.0;" width="1036" x="235" y="86.2969"/><text fill="#000000" font-family="sans-serif" font-size="14" font-weight="bold" lengthAdjust="spacing" textLength="59" x="723.5" y="101.292">helpers</text></g><!--class App--><g id="elem_App"><rect codeLine="5" fill="#F1F1F1" height="64.2969" id="App" rx="2.5" ry="2.5" style="stroke:#181818;stroke-width:0.5;" width="194" x="22" y="129.7969"/><ellipse cx="99.75" cy="145.7969" fill="#ADD1B2" rx="11" ry="11" style="stroke:#181818;stroke-width:1.0;"/><path d="M102.0938,141.4688 C101.1563,141.0313 100.5625,140.8906 99.6875,140.8906 C97.0625,140.8906 95.0625,142.9688 95.0625,145.6875 L95.0625,146.8125 C95.0625,149.3906 97.1719,151.2813 100.0625,151.2813 C101.2813,151.2813 102.4375,150.9844 103.1875,150.4375 C103.7656,150.0313 104.0938,149.5781 104.0938,149.1875 C104.0938,148.7344 103.7031,148.3438 103.2344,148.3438 C103.0156,148.3438 102.8125,148.4219 102.625,148.6094 C102.1719,149.0938 102.1719,149.0938 101.9844,149.1875 C101.5625,149.4531 100.875,149.5781 100.1094,149.5781 C98.0625,149.5781 96.7656,148.4844 96.7656,146.7813 L96.7656,145.6875 C96.7656,143.9063 98.0156,142.5938 99.75,142.5938 C100.3281,142.5938 100.9375,142.75 101.4063,143 C101.8906,143.2813 102.0625,143.5 102.1563,143.9063 C102.2188,144.3125 102.25,144.4375 102.3906,144.5625 C102.5313,144.7031 102.7656,144.8125 102.9844,144.8125 C103.25,144.8125 103.5156,144.6719 103.6875,144.4531 C103.7969,144.2969 103.8281,144.1094 103.8281,143.6875 L103.8281,142.2656 C103.8281,141.8281 103.8125,141.7031 103.7188,141.5469 C103.5625,141.2813 103.2813,141.1406 102.9844,141.1406 C102.6875,141.1406 102.4844,141.2344 102.2656,141.5469 L102.0938,141.4688 Z " fill="#000000"/><text fill="#000000" font-family="sans-serif" font-size="14" lengthAdjust="spacing" textLength="30" x="120.25" y="150.6436">App</text><line style="stroke:#181818;stroke-width:0.5;" x1="23" x2="215" y1="161.7969" y2="161.7969"/><line style="stroke:#181818;stroke-width:0.5;" x1="23" x2="215" y1="169.7969" y2="169.7969"/><ellipse cx="33" cy="183.4453" fill="#84BE84" rx="3" ry="3" style="stroke:#038048;stroke-width:1.0;"/><text fill="#000000" font-family="sans-serif" font-size="14" lengthAdjust="spacing" text-decoration="underline" textLength="168" x="42" y="186.792">main(String[] args):void</text></g><!--class Empleado--><g id="elem_Empleado"><rect codeLine="10" fill="#F1F1F1" height="210.9688" id="Empleado" rx="2.5" ry="2.5" style="stroke:#181818;stroke-width:0.5;" width="187" x="2237.5" y="1473.2969"/><ellipse cx="2290.75" cy="1489.2969" fill="#ADD1B2" rx="11" ry="11" style="stroke:#181818;stroke-width:1.0;"/><path d="M2293.0938,1484.9688 C2292.1563,1484.5313 2291.5625,1484.3906 2290.6875,1484.3906 C2288.0625,1484.3906 2286.0625,1486.4688 2286.0625,1489.1875 L2286.0625,1490.3125 C2286.0625,1492.8906 2288.1719,1494.7813 2291.0625,1494.7813 C2292.2813,1494.7813 2293.4375,1494.4844 2294.1875,1493.9375 C2294.7656,1493.5313 2295.0938,1493.0781 2295.0938,1492.6875 C2295.0938,1492.2344 2294.7031,1491.8438 2294.2344,1491.8438 C2294.0156,1491.8438 2293.8125,1491.9219 2293.625,1492.1094 C2293.1719,1492.5938 2293.1719,1492.5938 2292.9844,1492.6875 C2292.5625,1492.9531 2291.875,1493.0781 2291.1094,1493.0781 C2289.0625,1493.0781 2287.7656,1491.9844 2287.7656,1490.2813 L2287.7656,1489.1875 C2287.7656,1487.4063 2289.0156,1486.0938 2290.75,1486.0938 C2291.3281,1486.0938 2291.9375,1486.25 2292.4063,1486.5 C2292.8906,1486.7813 2293.0625,1487 2293.1563,1487.4063 C2293.2188,1487.8125 2293.25,1487.9375 2293.3906,1488.0625 C2293.5313,1488.2031 2293.7656,1488.3125 2293.9844,1488.3125 C2294.25,1488.3125 2294.5156,1488.1719 2294.6875,1487.9531 C2294.7969,1487.7969 2294.8281,1487.6094 2294.8281,1487.1875 L2294.8281,1485.7656 C2294.8281,1485.3281 2294.8125,1485.2031 2294.7188,1485.0469 C2294.5625,1484.7813 2294.2813,1484.6406 2293.9844,1484.6406 C2293.6875,1484.6406 2293.4844,1484.7344 2293.2656,1485.0469 L2293.0938,1484.9688 Z " fill="#000000"/><text fill="#000000" font-family="sans-serif" font-size="14" lengthAdjust="spacing" textLength="72" x="2311.25" y="1494.1436">Empleado</text><line style="stroke:#181818;stroke-width:0.5;" x1="2238.5" x2="2423.5" y1="1505.2969" y2="1505.2969"/><rect fill="none" height="6" style="stroke:#C82930;stroke-width:1.0;" width="6" x="2245.5" y="1515.9453"/><text fill="#000000" font-family="sans-serif" font-size="14" lengthAdjust="spacing" textLength="52" x="2257.5" y="1522.292">Long id</text><rect fill="none" height="6" style="stroke:#C82930;stroke-width:1.0;" width="6" x="2245.5" y="1532.2422"/><text fill="#000000" font-family="sans-serif" font-size="14" lengthAdjust="spacing" textLength="105" x="2257.5" y="1538.5889">String nombre</text><rect fill="none" height="6" style="stroke:#C82930;stroke-width:1.0;" width="6" x="2245.5" y="1548.5391"/><text fill="#000000" font-family="sans-serif" font-size="14" lengthAdjust="spacing" textLength="113" x="2257.5" y="1554.8857">String domicilio</text><rect fill="none" height="6" style="stroke:#C82930;stroke-width:1.0;" width="6" x="2245.5" y="1564.8359"/><text fill="#000000" font-family="sans-serif" font-size="14" lengthAdjust="spacing" textLength="110" x="2257.5" y="1571.1826">String telefono</text><rect fill="none" height="6" style="stroke:#C82930;stroke-width:1.0;" width="6" x="2245.5" y="1581.1328"/><text fill="#000000" font-family="sans-serif" font-size="14" lengthAdjust="spacing" textLength="87" x="2257.5" y="1587.4795">String email</text><rect fill="none" height="6" style="stroke:#C82930;stroke-width:1.0;" width="6" x="2245.5" y="1597.4297"/><text fill="#000000" font-family="sans-serif" font-size="14" lengthAdjust="spacing" textLength="161" x="2257.5" y="1603.7764">Date fechaNacimiento</text><rect fill="none" height="6" style="stroke:#C82930;stroke-width:1.0;" width="6" x="2245.5" y="1613.7266"/><text fill="#000000" font-family="sans-serif" font-size="14" lengthAdjust="spacing" textLength="108" x="2257.5" y="1620.0732">Genero genero</text><line style="stroke:#181818;stroke-width:0.5;" x1="2238.5" x2="2423.5" y1="1627.375" y2="1627.375"/><ellipse cx="2248.5" cy="1641.0234" fill="#84BE84" rx="3" ry="3" style="stroke:#038048;stroke-width:1.0;"/><text fill="#000000" font-family="sans-serif" font-size="14" lengthAdjust="spacing" textLength="117" x="2257.5" y="1644.3701">Empleado():void</text><ellipse cx="2248.5" cy="1657.3203" fill="#84BE84" rx="3" ry="3" style="stroke:#038048;stroke-width:1.0;"/><text fill="#000000" font-family="sans-serif" font-size="14" lengthAdjust="spacing" textLength="78" x="2257.5" y="1660.667">getters():T</text><ellipse cx="2248.5" cy="1673.6172" fill="#84BE84" rx="3" ry="3" style="stroke:#038048;stroke-width:1.0;"/><text fill="#000000" font-family="sans-serif" font-size="14" lengthAdjust="spacing" textLength="76" x="2257.5" y="1676.9639">setters():T</text></g><!--class Login--><g id="elem_Login"><rect codeLine="23" fill="#F1F1F1" height="178.375" id="Login" rx="2.5" ry="2.5" style="stroke:#181818;stroke-width:0.5;" width="158" x="2044" y="1489.7969"/><ellipse cx="2099.25" cy="1505.7969" fill="#ADD1B2" rx="11" ry="11" style="stroke:#181818;stroke-width:1.0;"/><path d="M2101.5938,1501.4688 C2100.6563,1501.0313 2100.0625,1500.8906 2099.1875,1500.8906 C2096.5625,1500.8906 2094.5625,1502.9688 2094.5625,1505.6875 L2094.5625,1506.8125 C2094.5625,1509.3906 2096.6719,1511.2813 2099.5625,1511.2813 C2100.7813,1511.2813 2101.9375,1510.9844 2102.6875,1510.4375 C2103.2656,1510.0313 2103.5938,1509.5781 2103.5938,1509.1875 C2103.5938,1508.7344 2103.2031,1508.3438 2102.7344,1508.3438 C2102.5156,1508.3438 2102.3125,1508.4219 2102.125,1508.6094 C2101.6719,1509.0938 2101.6719,1509.0938 2101.4844,1509.1875 C2101.0625,1509.4531 2100.375,1509.5781 2099.6094,1509.5781 C2097.5625,1509.5781 2096.2656,1508.4844 2096.2656,1506.7813 L2096.2656,1505.6875 C2096.2656,1503.9063 2097.5156,1502.5938 2099.25,1502.5938 C2099.8281,1502.5938 2100.4375,1502.75 2100.9063,1503 C2101.3906,1503.2813 2101.5625,1503.5 2101.6563,1503.9063 C2101.7188,1504.3125 2101.75,1504.4375 2101.8906,1504.5625 C2102.0313,1504.7031 2102.2656,1504.8125 2102.4844,1504.8125 C2102.75,1504.8125 2103.0156,1504.6719 2103.1875,1504.4531 C2103.2969,1504.2969 2103.3281,1504.1094 2103.3281,1503.6875 L2103.3281,1502.2656 C2103.3281,1501.8281 2103.3125,1501.7031 2103.2188,1501.5469 C2103.0625,1501.2813 2102.7813,1501.1406 2102.4844,1501.1406 C2102.1875,1501.1406 2101.9844,1501.2344 2101.7656,1501.5469 L2101.5938,1501.4688 Z " fill="#000000"/><text fill="#000000" font-family="sans-serif" font-size="14" lengthAdjust="spacing" textLength="39" x="2119.75" y="1510.6436">Login</text><line style="stroke:#181818;stroke-width:0.5;" x1="2045" x2="2201" y1="1521.7969" y2="1521.7969"/><rect fill="none" height="6" style="stroke:#C82930;stroke-width:1.0;" width="6" x="2052" y="1532.4453"/><text fill="#000000" font-family="sans-serif" font-size="14" lengthAdjust="spacing" textLength="52" x="2064" y="1538.792">Long id</text><rect fill="none" height="6" style="stroke:#C82930;stroke-width:1.0;" width="6" x="2052" y="1548.7422"/><text fill="#000000" font-family="sans-serif" font-size="14" lengthAdjust="spacing" textLength="105" x="2064" y="1555.0889">String nombre</text><rect fill="none" height="6" style="stroke:#C82930;stroke-width:1.0;" width="6" x="2052" y="1565.0391"/><text fill="#000000" font-family="sans-serif" font-size="14" lengthAdjust="spacing" textLength="87" x="2064" y="1571.3857">String email</text><rect fill="none" height="6" style="stroke:#C82930;stroke-width:1.0;" width="6" x="2052" y="1581.3359"/><text fill="#000000" font-family="sans-serif" font-size="14" lengthAdjust="spacing" textLength="98" x="2064" y="1587.6826">String usuario</text><rect fill="none" height="6" style="stroke:#C82930;stroke-width:1.0;" width="6" x="2052" y="1597.6328"/><text fill="#000000" font-family="sans-serif" font-size="14" lengthAdjust="spacing" textLength="132" x="2064" y="1603.9795">String contrasenia</text><line style="stroke:#181818;stroke-width:0.5;" x1="2045" x2="2201" y1="1611.2813" y2="1611.2813"/><ellipse cx="2055" cy="1624.9297" fill="#84BE84" rx="3" ry="3" style="stroke:#038048;stroke-width:1.0;"/><text fill="#000000" font-family="sans-serif" font-size="14" lengthAdjust="spacing" textLength="84" x="2064" y="1628.2764">Login():void</text><ellipse cx="2055" cy="1641.2266" fill="#84BE84" rx="3" ry="3" style="stroke:#038048;stroke-width:1.0;"/><text fill="#000000" font-family="sans-serif" font-size="14" lengthAdjust="spacing" textLength="78" x="2064" y="1644.5732">getters():T</text><ellipse cx="2055" cy="1657.5234" fill="#84BE84" rx="3" ry="3" style="stroke:#038048;stroke-width:1.0;"/><text fill="#000000" font-family="sans-serif" font-size="14" lengthAdjust="spacing" textLength="76" x="2064" y="1660.8701">setters():T</text></g><!--class Genero--><g id="elem_Genero"><rect codeLine="34" fill="#F1F1F1" height="129.4844" id="Genero" rx="2.5" ry="2.5" style="stroke:#181818;stroke-width:0.5;" width="131" x="2459.5" y="1514.2969"/><ellipse cx="2495.2" cy="1530.2969" fill="#ADD1B2" rx="11" ry="11" style="stroke:#181818;stroke-width:1.0;"/><path d="M2497.5438,1525.9688 C2496.6063,1525.5313 2496.0125,1525.3906 2495.1375,1525.3906 C2492.5125,1525.3906 2490.5125,1527.4688 2490.5125,1530.1875 L2490.5125,1531.3125 C2490.5125,1533.8906 2492.6219,1535.7813 2495.5125,1535.7813 C2496.7313,1535.7813 2497.8875,1535.4844 2498.6375,1534.9375 C2499.2156,1534.5313 2499.5438,1534.0781 2499.5438,1533.6875 C2499.5438,1533.2344 2499.1531,1532.8438 2498.6844,1532.8438 C2498.4656,1532.8438 2498.2625,1532.9219 2498.075,1533.1094 C2497.6219,1533.5938 2497.6219,1533.5938 2497.4344,1533.6875 C2497.0125,1533.9531 2496.325,1534.0781 2495.5594,1534.0781 C2493.5125,1534.0781 2492.2156,1532.9844 2492.2156,1531.2813 L2492.2156,1530.1875 C2492.2156,1528.4063 2493.4656,1527.0938 2495.2,1527.0938 C2495.7781,1527.0938 2496.3875,1527.25 2496.8563,1527.5 C2497.3406,1527.7813 2497.5125,1528 2497.6063,1528.4063 C2497.6688,1528.8125 2497.7,1528.9375 2497.8406,1529.0625 C2497.9813,1529.2031 2498.2156,1529.3125 2498.4344,1529.3125 C2498.7,1529.3125 2498.9656,1529.1719 2499.1375,1528.9531 C2499.2469,1528.7969 2499.2781,1528.6094 2499.2781,1528.1875 L2499.2781,1526.7656 C2499.2781,1526.3281 2499.2625,1526.2031 2499.1688,1526.0469 C2499.0125,1525.7813 2498.7313,1525.6406 2498.4344,1525.6406 C2498.1375,1525.6406 2497.9344,1525.7344 2497.7156,1526.0469 L2497.5438,1525.9688 Z " fill="#000000"/><text fill="#000000" font-family="sans-serif" font-size="14" lengthAdjust="spacing" textLength="53" x="2513.8" y="1535.1436">Genero</text><line style="stroke:#181818;stroke-width:0.5;" x1="2460.5" x2="2589.5" y1="1546.2969" y2="1546.2969"/><rect fill="none" height="6" style="stroke:#C82930;stroke-width:1.0;" width="6" x="2467.5" y="1556.9453"/><text fill="#000000" font-family="sans-serif" font-size="14" lengthAdjust="spacing" textLength="52" x="2479.5" y="1563.292">Long id</text><rect fill="none" height="6" style="stroke:#C82930;stroke-width:1.0;" width="6" x="2467.5" y="1573.2422"/><text fill="#000000" font-family="sans-serif" font-size="14" lengthAdjust="spacing" textLength="105" x="2479.5" y="1579.5889">String nombre</text><line style="stroke:#181818;stroke-width:0.5;" x1="2460.5" x2="2589.5" y1="1586.8906" y2="1586.8906"/><ellipse cx="2470.5" cy="1600.5391" fill="#84BE84" rx="3" ry="3" style="stroke:#038048;stroke-width:1.0;"/><text fill="#000000" font-family="sans-serif" font-size="14" lengthAdjust="spacing" textLength="98" x="2479.5" y="1603.8857">Genero():void</text><ellipse cx="2470.5" cy="1616.8359" fill="#84BE84" rx="3" ry="3" style="stroke:#038048;stroke-width:1.0;"/><text fill="#000000" font-family="sans-serif" font-size="14" lengthAdjust="spacing" textLength="78" x="2479.5" y="1620.1826">getters():T</text><ellipse cx="2470.5" cy="1633.1328" fill="#84BE84" rx="3" ry="3" style="stroke:#038048;stroke-width:1.0;"/><text fill="#000000" font-family="sans-serif" font-size="14" lengthAdjust="spacing" textLength="76" x="2479.5" y="1636.4795">setters():T</text></g><!--class RepositoryInterface--><g id="elem_RepositoryInterface"><rect codeLine="45" fill="#F1F1F1" height="129.4844" id="RepositoryInterface" rx="2.5" ry="2.5" style="stroke:#181818;stroke-width:0.5;" width="215" x="3452.5" y="1759.2969"/><ellipse cx="3481.9" cy="1775.2969" fill="#B4A7E5" rx="11" ry="11" style="stroke:#181818;stroke-width:1.0;"/><path d="M3482.8531,1772.0781 L3484.5719,1772.0781 C3484.9625,1772.0781 3485.15,1772.0469 3485.275,1771.9688 C3485.5406,1771.8125 3485.6813,1771.5313 3485.6813,1771.2344 C3485.6813,1770.9688 3485.5719,1770.7031 3485.3375,1770.5313 C3485.1656,1770.4219 3485.025,1770.3906 3484.5719,1770.3906 L3479.4313,1770.3906 C3478.9938,1770.3906 3478.8688,1770.4063 3478.7125,1770.5 C3478.4625,1770.6563 3478.3063,1770.9531 3478.3063,1771.2344 C3478.3063,1771.5156 3478.4469,1771.7656 3478.6656,1771.9375 C3478.8219,1772.0469 3479.0094,1772.0781 3479.4313,1772.0781 L3481.15,1772.0781 L3481.15,1778.5938 L3479.4313,1778.5938 C3478.9938,1778.5938 3478.8688,1778.6094 3478.7125,1778.7188 C3478.4625,1778.875 3478.3063,1779.1563 3478.3063,1779.4531 C3478.3063,1779.7031 3478.4469,1779.9688 3478.6656,1780.125 C3478.8219,1780.25 3479.025,1780.2969 3479.4313,1780.2969 L3484.5719,1780.2969 C3485.3219,1780.2969 3485.6813,1780.0156 3485.6813,1779.4531 C3485.6813,1779.1719 3485.5719,1778.9219 3485.3375,1778.75 C3485.1656,1778.625 3485.025,1778.5938 3484.5719,1778.5938 L3482.8531,1778.5938 L3482.8531,1772.0781 Z " fill="#000000"/><text fill="#000000" font-family="sans-serif" font-size="14" font-style="italic" lengthAdjust="spacing" textLength="140" x="3499.1" y="1780.1436">RepositoryInterface</text><rect fill="#FFFFFF" height="15.9688" style="stroke:#181818;stroke-width:1.0;stroke-dasharray:2.0,2.0;" width="9" x="3661.5" y="1756.2969"/><text fill="#000000" font-family="sans-serif" font-size="12" font-style="italic" lengthAdjust="spacing" textLength="7" x="3662.5" y="1768.4355">T</text><line style="stroke:#181818;stroke-width:0.5;" x1="3453.5" x2="3666.5" y1="1791.2969" y2="1791.2969"/><line style="stroke:#181818;stroke-width:0.5;" x1="3453.5" x2="3666.5" y1="1799.2969" y2="1799.2969"/><ellipse cx="3463.5" cy="1812.9453" fill="#84BE84" rx="3" ry="3" style="stroke:#038048;stroke-width:1.0;"/><text fill="#000000" font-family="sans-serif" font-size="14" lengthAdjust="spacing" textLength="163" x="3472.5" y="1816.292">T recuperarId(Long id);</text><ellipse cx="3463.5" cy="1829.2422" fill="#84BE84" rx="3" ry="3" style="stroke:#038048;stroke-width:1.0;"/><text fill="#000000" font-family="sans-serif" font-size="14" lengthAdjust="spacing" textLength="189" x="3472.5" y="1832.5889">List&lt;T&gt; recuperarTodos();</text><ellipse cx="3463.5" cy="1845.5391" fill="#84BE84" rx="3" ry="3" style="stroke:#038048;stroke-width:1.0;"/><text fill="#000000" font-family="sans-serif" font-size="14" lengthAdjust="spacing" textLength="172" x="3472.5" y="1848.8857">void agregar(T entidad);</text><ellipse cx="3463.5" cy="1861.8359" fill="#84BE84" rx="3" ry="3" style="stroke:#038048;stroke-width:1.0;"/><text fill="#000000" font-family="sans-serif" font-size="14" lengthAdjust="spacing" textLength="185" x="3472.5" y="1865.1826">void modificar(T entidad);</text><ellipse cx="3463.5" cy="1878.1328" fill="#84BE84" rx="3" ry="3" style="stroke:#038048;stroke-width:1.0;"/><text fill="#000000" font-family="sans-serif" font-size="14" lengthAdjust="spacing" textLength="175" x="3472.5" y="1881.4795">void eliminar(T entidad);</text></g><g id="elem_IE"><path d="M3478,1566.2969 L3478,1591.4297 L3642,1591.4297 L3642,1576.2969 L3632,1566.2969 L3478,1566.2969 " fill="#FEFFDD" style="stroke:#181818;stroke-width:0.5;"/><path d="M3632,1566.2969 L3632,1576.2969 L3642,1576.2969 L3632,1566.2969 " fill="#FEFFDD" style="stroke:#181818;stroke-width:1.0;"/><text fill="#000000" font-family="sans-serif" font-size="13" lengthAdjust="spacing" textLength="143" x="3484" y="1583.3638">implementar metodos</text></g><!--class EmpleadoRepository--><g id="elem_EmpleadoRepository"><rect codeLine="70" fill="#F1F1F1" height="96.8906" id="EmpleadoRepository" rx="2.5" ry="2.5" style="stroke:#181818;stroke-width:0.5;" width="454" x="3436" y="1038.2969"/><ellipse cx="3583.25" cy="1054.2969" fill="#ADD1B2" rx="11" ry="11" style="stroke:#181818;stroke-width:1.0;"/><path d="M3585.5938,1049.9688 C3584.6563,1049.5313 3584.0625,1049.3906 3583.1875,1049.3906 C3580.5625,1049.3906 3578.5625,1051.4688 3578.5625,1054.1875 L3578.5625,1055.3125 C3578.5625,1057.8906 3580.6719,1059.7813 3583.5625,1059.7813 C3584.7813,1059.7813 3585.9375,1059.4844 3586.6875,1058.9375 C3587.2656,1058.5313 3587.5938,1058.0781 3587.5938,1057.6875 C3587.5938,1057.2344 3587.2031,1056.8438 3586.7344,1056.8438 C3586.5156,1056.8438 3586.3125,1056.9219 3586.125,1057.1094 C3585.6719,1057.5938 3585.6719,1057.5938 3585.4844,1057.6875 C3585.0625,1057.9531 3584.375,1058.0781 3583.6094,1058.0781 C3581.5625,1058.0781 3580.2656,1056.9844 3580.2656,1055.2813 L3580.2656,1054.1875 C3580.2656,1052.4063 3581.5156,1051.0938 3583.25,1051.0938 C3583.8281,1051.0938 3584.4375,1051.25 3584.9063,1051.5 C3585.3906,1051.7813 3585.5625,1052 3585.6563,1052.4063 C3585.7188,1052.8125 3585.75,1052.9375 3585.8906,1053.0625 C3586.0313,1053.2031 3586.2656,1053.3125 3586.4844,1053.3125 C3586.75,1053.3125 3587.0156,1053.1719 3587.1875,1052.9531 C3587.2969,1052.7969 3587.3281,1052.6094 3587.3281,1052.1875 L3587.3281,1050.7656 C3587.3281,1050.3281 3587.3125,1050.2031 3587.2188,1050.0469 C3587.0625,1049.7813 3586.7813,1049.6406 3586.4844,1049.6406 C3586.1875,1049.6406 3585.9844,1049.7344 3585.7656,1050.0469 L3585.5938,1049.9688 Z " fill="#000000"/><text fill="#000000" font-family="sans-serif" font-size="14" lengthAdjust="spacing" textLength="151" x="3603.75" y="1059.1436">EmpleadoRepository</text><line style="stroke:#181818;stroke-width:0.5;" x1="3437" x2="3889" y1="1070.2969" y2="1070.2969"/><rect fill="none" height="6" style="stroke:#C82930;stroke-width:1.0;" width="6" x="3444" y="1080.9453"/><text fill="#000000" font-family="sans-serif" font-size="14" lengthAdjust="spacing" textLength="359" x="3456" y="1087.292">GenerosRepositoryRepository generosRepository</text><line style="stroke:#181818;stroke-width:0.5;" x1="3437" x2="3889" y1="1094.5938" y2="1094.5938"/><rect fill="#F24D5C" height="6" style="stroke:#C82930;stroke-width:1.0;" width="6" x="3444" y="1105.2422"/><text fill="#000000" font-family="sans-serif" font-size="14" lengthAdjust="spacing" textLength="428" x="3456" y="1111.5889">dameListaEmpleados(ResultSet resultSet):List&lt;Empleado&gt;</text><rect fill="#F24D5C" height="6" style="stroke:#C82930;stroke-width:1.0;" width="6" x="3444" y="1121.5391"/><text fill="#000000" font-family="sans-serif" font-size="14" lengthAdjust="spacing" textLength="392" x="3456" y="1127.8857">dameEntidadResultSet(ResultSet resultSet):Empleado</text></g><!--class GenerosRepository--><g id="elem_GenerosRepository"><rect codeLine="77" fill="#F1F1F1" height="80.5938" id="GenerosRepository" rx="2.5" ry="2.5" style="stroke:#181818;stroke-width:0.5;" width="416" x="3474" y="1256.2969"/><ellipse cx="3608.25" cy="1272.2969" fill="#ADD1B2" rx="11" ry="11" style="stroke:#181818;stroke-width:1.0;"/><path d="M3610.5938,1267.9688 C3609.6563,1267.5313 3609.0625,1267.3906 3608.1875,1267.3906 C3605.5625,1267.3906 3603.5625,1269.4688 3603.5625,1272.1875 L3603.5625,1273.3125 C3603.5625,1275.8906 3605.6719,1277.7813 3608.5625,1277.7813 C3609.7813,1277.7813 3610.9375,1277.4844 3611.6875,1276.9375 C3612.2656,1276.5313 3612.5938,1276.0781 3612.5938,1275.6875 C3612.5938,1275.2344 3612.2031,1274.8438 3611.7344,1274.8438 C3611.5156,1274.8438 3611.3125,1274.9219 3611.125,1275.1094 C3610.6719,1275.5938 3610.6719,1275.5938 3610.4844,1275.6875 C3610.0625,1275.9531 3609.375,1276.0781 3608.6094,1276.0781 C3606.5625,1276.0781 3605.2656,1274.9844 3605.2656,1273.2813 L3605.2656,1272.1875 C3605.2656,1270.4063 3606.5156,1269.0938 3608.25,1269.0938 C3608.8281,1269.0938 3609.4375,1269.25 3609.9063,1269.5 C3610.3906,1269.7813 3610.5625,1270 3610.6563,1270.4063 C3610.7188,1270.8125 3610.75,1270.9375 3610.8906,1271.0625 C3611.0313,1271.2031 3611.2656,1271.3125 3611.4844,1271.3125 C3611.75,1271.3125 3612.0156,1271.1719 3612.1875,1270.9531 C3612.2969,1270.7969 3612.3281,1270.6094 3612.3281,1270.1875 L3612.3281,1268.7656 C3612.3281,1268.3281 3612.3125,1268.2031 3612.2188,1268.0469 C3612.0625,1267.7813 3611.7813,1267.6406 3611.4844,1267.6406 C3611.1875,1267.6406 3610.9844,1267.7344 3610.7656,1268.0469 L3610.5938,1267.9688 Z " fill="#000000"/><text fill="#000000" font-family="sans-serif" font-size="14" lengthAdjust="spacing" textLength="139" x="3628.75" y="1277.1436">GenerosRepository</text><line style="stroke:#181818;stroke-width:0.5;" x1="3475" x2="3889" y1="1288.2969" y2="1288.2969"/><line style="stroke:#181818;stroke-width:0.5;" x1="3475" x2="3889" y1="1296.2969" y2="1296.2969"/><rect fill="#F24D5C" height="6" style="stroke:#C82930;stroke-width:1.0;" width="6" x="3482" y="1306.9453"/><text fill="#000000" font-family="sans-serif" font-size="14" lengthAdjust="spacing" textLength="390" x="3494" y="1313.292">dameListaGeneros(ResultSet resultSet):List&lt;Genero&gt;</text><rect fill="#F24D5C" height="6" style="stroke:#C82930;stroke-width:1.0;" width="6" x="3482" y="1323.2422"/><text fill="#000000" font-family="sans-serif" font-size="14" lengthAdjust="spacing" textLength="373" x="3494" y="1329.5889">dameEntidadResultSet(ResultSet resultSet):Genero</text></g><!--class LoginRepository--><g id="elem_LoginRepository"><rect codeLine="82" fill="#F1F1F1" height="96.8906" id="LoginRepository" rx="2.5" ry="2.5" style="stroke:#181818;stroke-width:0.5;" width="423" x="2977.5" y="1038.2969"/><ellipse cx="3125.75" cy="1054.2969" fill="#ADD1B2" rx="11" ry="11" style="stroke:#181818;stroke-width:1.0;"/><path d="M3128.0938,1049.9688 C3127.1563,1049.5313 3126.5625,1049.3906 3125.6875,1049.3906 C3123.0625,1049.3906 3121.0625,1051.4688 3121.0625,1054.1875 L3121.0625,1055.3125 C3121.0625,1057.8906 3123.1719,1059.7813 3126.0625,1059.7813 C3127.2813,1059.7813 3128.4375,1059.4844 3129.1875,1058.9375 C3129.7656,1058.5313 3130.0938,1058.0781 3130.0938,1057.6875 C3130.0938,1057.2344 3129.7031,1056.8438 3129.2344,1056.8438 C3129.0156,1056.8438 3128.8125,1056.9219 3128.625,1057.1094 C3128.1719,1057.5938 3128.1719,1057.5938 3127.9844,1057.6875 C3127.5625,1057.9531 3126.875,1058.0781 3126.1094,1058.0781 C3124.0625,1058.0781 3122.7656,1056.9844 3122.7656,1055.2813 L3122.7656,1054.1875 C3122.7656,1052.4063 3124.0156,1051.0938 3125.75,1051.0938 C3126.3281,1051.0938 3126.9375,1051.25 3127.4063,1051.5 C3127.8906,1051.7813 3128.0625,1052 3128.1563,1052.4063 C3128.2188,1052.8125 3128.25,1052.9375 3128.3906,1053.0625 C3128.5313,1053.2031 3128.7656,1053.3125 3128.9844,1053.3125 C3129.25,1053.3125 3129.5156,1053.1719 3129.6875,1052.9531 C3129.7969,1052.7969 3129.8281,1052.6094 3129.8281,1052.1875 L3129.8281,1050.7656 C3129.8281,1050.3281 3129.8125,1050.2031 3129.7188,1050.0469 C3129.5625,1049.7813 3129.2813,1049.6406 3128.9844,1049.6406 C3128.6875,1049.6406 3128.4844,1049.7344 3128.2656,1050.0469 L3128.0938,1049.9688 Z " fill="#000000"/><text fill="#000000" font-family="sans-serif" font-size="14" lengthAdjust="spacing" textLength="118" x="3146.25" y="1059.1436">LoginRepository</text><line style="stroke:#181818;stroke-width:0.5;" x1="2978.5" x2="3399.5" y1="1070.2969" y2="1070.2969"/><line style="stroke:#181818;stroke-width:0.5;" x1="2978.5" x2="3399.5" y1="1078.2969" y2="1078.2969"/><ellipse cx="2988.5" cy="1091.9453" fill="#84BE84" rx="3" ry="3" style="stroke:#038048;stroke-width:1.0;"/><text fill="#000000" font-family="sans-serif" font-size="14" lengthAdjust="spacing" textLength="397" x="2997.5" y="1095.292">iniciarSesion(String usuario,String contrasenia):boolean</text><ellipse cx="2988.5" cy="1108.2422" fill="#84BE84" rx="3" ry="3" style="stroke:#038048;stroke-width:1.0;"/><text fill="#000000" font-family="sans-serif" font-size="14" lengthAdjust="spacing" textLength="198" x="2997.5" y="1111.5889">agregar(Login entidad):void</text><rect fill="#F24D5C" height="6" style="stroke:#C82930;stroke-width:1.0;" width="6" x="2985.5" y="1121.5391"/><text fill="#000000" font-family="sans-serif" font-size="14" lengthAdjust="spacing" textLength="359" x="2997.5" y="1127.8857">dameEntidadResultSet(ResultSet resultSet):Login</text></g><!--class ConexionDB--><g id="elem_ConexionDB"><rect codeLine="90" fill="#F1F1F1" height="202.9375" id="ConexionDB" rx="2.5" ry="2.5" style="stroke:#181818;stroke-width:0.5;" width="250" x="2671" y="1195.2969"/><ellipse cx="2747.75" cy="1215.4297" fill="#ADD1B2" rx="11" ry="11" style="stroke:#181818;stroke-width:1.0;"/><path d="M2750.0938,1211.1016 C2749.1563,1210.6641 2748.5625,1210.5234 2747.6875,1210.5234 C2745.0625,1210.5234 2743.0625,1212.6016 2743.0625,1215.3203 L2743.0625,1216.4453 C2743.0625,1219.0234 2745.1719,1220.9141 2748.0625,1220.9141 C2749.2813,1220.9141 2750.4375,1220.6172 2751.1875,1220.0703 C2751.7656,1219.6641 2752.0938,1219.2109 2752.0938,1218.8203 C2752.0938,1218.3672 2751.7031,1217.9766 2751.2344,1217.9766 C2751.0156,1217.9766 2750.8125,1218.0547 2750.625,1218.2422 C2750.1719,1218.7266 2750.1719,1218.7266 2749.9844,1218.8203 C2749.5625,1219.0859 2748.875,1219.2109 2748.1094,1219.2109 C2746.0625,1219.2109 2744.7656,1218.1172 2744.7656,1216.4141 L2744.7656,1215.3203 C2744.7656,1213.5391 2746.0156,1212.2266 2747.75,1212.2266 C2748.3281,1212.2266 2748.9375,1212.3828 2749.4063,1212.6328 C2749.8906,1212.9141 2750.0625,1213.1328 2750.1563,1213.5391 C2750.2188,1213.9453 2750.25,1214.0703 2750.3906,1214.1953 C2750.5313,1214.3359 2750.7656,1214.4453 2750.9844,1214.4453 C2751.25,1214.4453 2751.5156,1214.3047 2751.6875,1214.0859 C2751.7969,1213.9297 2751.8281,1213.7422 2751.8281,1213.3203 L2751.8281,1211.8984 C2751.8281,1211.4609 2751.8125,1211.3359 2751.7188,1211.1797 C2751.5625,1210.9141 2751.2813,1210.7734 2750.9844,1210.7734 C2750.6875,1210.7734 2750.4844,1210.8672 2750.2656,1211.1797 L2750.0938,1211.1016 Z " fill="#000000"/><text fill="#000000" font-family="sans-serif" font-size="12" font-style="italic" lengthAdjust="spacing" textLength="71" x="2776.75" y="1211.4355">&#171;Singleton&#187;</text><text fill="#000000" font-family="sans-serif" font-size="14" lengthAdjust="spacing" textLength="88" x="2768.25" y="1227.2607">ConexionDB</text><line style="stroke:#181818;stroke-width:0.5;" x1="2672" x2="2920" y1="1235.5625" y2="1235.5625"/><rect fill="none" height="6" style="stroke:#C82930;stroke-width:1.0;" width="6" x="2679" y="1246.2109"/><text fill="#000000" font-family="sans-serif" font-size="14" lengthAdjust="spacing" text-decoration="underline" textLength="148" x="2691" y="1252.5576">Connectionconexion</text><rect fill="none" height="6" style="stroke:#C82930;stroke-width:1.0;" width="6" x="2679" y="1262.5078"/><text fill="#000000" font-family="sans-serif" font-size="14" lengthAdjust="spacing" text-decoration="underline" textLength="78" x="2691" y="1268.8545">String user</text><rect fill="none" height="6" style="stroke:#C82930;stroke-width:1.0;" width="6" x="2679" y="1278.8047"/><text fill="#000000" font-family="sans-serif" font-size="14" lengthAdjust="spacing" text-decoration="underline" textLength="80" x="2691" y="1285.1514">String pass</text><rect fill="none" height="6" style="stroke:#C82930;stroke-width:1.0;" width="6" x="2679" y="1295.1016"/><text fill="#000000" font-family="sans-serif" font-size="14" lengthAdjust="spacing" text-decoration="underline" textLength="67" x="2691" y="1301.4482">String db</text><rect fill="none" height="6" style="stroke:#C82930;stroke-width:1.0;" width="6" x="2679" y="1311.3984"/><text fill="#000000" font-family="sans-serif" font-size="14" lengthAdjust="spacing" text-decoration="underline" textLength="56" x="2691" y="1317.7451">int port</text><rect fill="none" height="6" style="stroke:#C82930;stroke-width:1.0;" width="6" x="2679" y="1327.6953"/><text fill="#000000" font-family="sans-serif" font-size="14" lengthAdjust="spacing" text-decoration="underline" textLength="66" x="2691" y="1334.042">String url</text><line style="stroke:#181818;stroke-width:0.5;" x1="2672" x2="2920" y1="1341.3438" y2="1341.3438"/><rect fill="#F24D5C" height="6" style="stroke:#C82930;stroke-width:1.0;" width="6" x="2679" y="1351.9922"/><text fill="#000000" font-family="sans-serif" font-size="14" lengthAdjust="spacing" textLength="89" x="2691" y="1358.3389">ConxionDB()</text><ellipse cx="2682" cy="1371.2891" fill="#84BE84" rx="3" ry="3" style="stroke:#038048;stroke-width:1.0;"/><text fill="#000000" font-family="sans-serif" font-size="14" lengthAdjust="spacing" text-decoration="underline" textLength="224" x="2691" y="1374.6357">obtenerConexion():Connection</text><ellipse cx="2682" cy="1387.5859" fill="#84BE84" rx="3" ry="3" style="stroke:#038048;stroke-width:1.0;"/><text fill="#000000" font-family="sans-serif" font-size="14" lengthAdjust="spacing" text-decoration="underline" textLength="155" x="2691" y="1390.9326">cerrarConexion():void</text></g><g id="elem_GMN26"><path d="M2678,1074.2969 L2678,1099.4297 A0,0 0 0 0 2678,1099.4297 L2792,1099.4297 L2796,1195.0549 L2800,1099.4297 L2914,1099.4297 A0,0 0 0 0 2914,1099.4297 L2914,1084.2969 L2904,1074.2969 L2678,1074.2969 A0,0 0 0 0 2678,1074.2969 " fill="#FEFFDD" style="stroke:#181818;stroke-width:0.5;"/><path d="M2904,1074.2969 L2904,1084.2969 L2914,1084.2969 L2904,1074.2969 " fill="#FEFFDD" style="stroke:#181818;stroke-width:0.5;"/><text fill="#000000" font-family="sans-serif" font-size="13" lengthAdjust="spacing" textLength="215" x="2684" y="1091.3638">Utilizar mysql-connecto-j-8.2.0.jar</text></g><!--class VentanaLogin--><g id="elem_VentanaLogin"><rect codeLine="118" fill="#F1F1F1" height="243.5625" id="VentanaLogin" rx="2.5" ry="2.5" style="stroke:#181818;stroke-width:0.5;" width="322" x="1311" y="473.7969"/><ellipse cx="1418.25" cy="489.7969" fill="#ADD1B2" rx="11" ry="11" style="stroke:#181818;stroke-width:1.0;"/><path d="M1420.5938,485.4688 C1419.6563,485.0313 1419.0625,484.8906 1418.1875,484.8906 C1415.5625,484.8906 1413.5625,486.9688 1413.5625,489.6875 L1413.5625,490.8125 C1413.5625,493.3906 1415.6719,495.2813 1418.5625,495.2813 C1419.7813,495.2813 1420.9375,494.9844 1421.6875,494.4375 C1422.2656,494.0313 1422.5938,493.5781 1422.5938,493.1875 C1422.5938,492.7344 1422.2031,492.3438 1421.7344,492.3438 C1421.5156,492.3438 1421.3125,492.4219 1421.125,492.6094 C1420.6719,493.0938 1420.6719,493.0938 1420.4844,493.1875 C1420.0625,493.4531 1419.375,493.5781 1418.6094,493.5781 C1416.5625,493.5781 1415.2656,492.4844 1415.2656,490.7813 L1415.2656,489.6875 C1415.2656,487.9063 1416.5156,486.5938 1418.25,486.5938 C1418.8281,486.5938 1419.4375,486.75 1419.9063,487 C1420.3906,487.2813 1420.5625,487.5 1420.6563,487.9063 C1420.7188,488.3125 1420.75,488.4375 1420.8906,488.5625 C1421.0313,488.7031 1421.2656,488.8125 1421.4844,488.8125 C1421.75,488.8125 1422.0156,488.6719 1422.1875,488.4531 C1422.2969,488.2969 1422.3281,488.1094 1422.3281,487.6875 L1422.3281,486.2656 C1422.3281,485.8281 1422.3125,485.7031 1422.2188,485.5469 C1422.0625,485.2813 1421.7813,485.1406 1421.4844,485.1406 C1421.1875,485.1406 1420.9844,485.2344 1420.7656,485.5469 L1420.5938,485.4688 Z " fill="#000000"/><text fill="#000000" font-family="sans-serif" font-size="14" lengthAdjust="spacing" textLength="99" x="1438.75" y="494.6436">VentanaLogin</text><line style="stroke:#181818;stroke-width:0.5;" x1="1312" x2="1632" y1="505.7969" y2="505.7969"/><rect fill="none" height="6" style="stroke:#C82930;stroke-width:1.0;" width="6" x="1319" y="516.4453"/><text fill="#000000" font-family="sans-serif" font-size="14" lengthAdjust="spacing" textLength="236" x="1331" y="522.792">LoginRepository loginRepository</text><rect fill="none" height="6" style="stroke:#C82930;stroke-width:1.0;" width="6" x="1319" y="532.7422"/><text fill="#000000" font-family="sans-serif" font-size="14" lengthAdjust="spacing" textLength="121" x="1331" y="539.0889">JLabel textJLabel</text><rect fill="none" height="6" style="stroke:#C82930;stroke-width:1.0;" width="6" x="1319" y="549.0391"/><text fill="#000000" font-family="sans-serif" font-size="14" lengthAdjust="spacing" textLength="140" x="1331" y="555.3857">JLabel usuarioJLabel</text><rect fill="none" height="6" style="stroke:#C82930;stroke-width:1.0;" width="6" x="1319" y="565.3359"/><text fill="#000000" font-family="sans-serif" font-size="14" lengthAdjust="spacing" textLength="196" x="1331" y="571.6826">JTextField usuarioJTextField</text><rect fill="none" height="6" style="stroke:#C82930;stroke-width:1.0;" width="6" x="1319" y="581.6328"/><text fill="#000000" font-family="sans-serif" font-size="14" lengthAdjust="spacing" textLength="174" x="1331" y="587.9795">JLabel contraseniaJLabel</text><rect fill="none" height="6" style="stroke:#C82930;stroke-width:1.0;" width="6" x="1319" y="597.9297"/><text fill="#000000" font-family="sans-serif" font-size="14" lengthAdjust="spacing" textLength="296" x="1331" y="604.2764">JPasswordField contraseniaJPasswordField</text><rect fill="none" height="6" style="stroke:#C82930;stroke-width:1.0;" width="6" x="1319" y="614.2266"/><text fill="#000000" font-family="sans-serif" font-size="14" lengthAdjust="spacing" textLength="155" x="1331" y="620.5732">JButton iniciarJButton</text><rect fill="none" height="6" style="stroke:#C82930;stroke-width:1.0;" width="6" x="1319" y="630.5234"/><text fill="#000000" font-family="sans-serif" font-size="14" lengthAdjust="spacing" textLength="174" x="1331" y="636.8701">JButton registrarJButton</text><line style="stroke:#181818;stroke-width:0.5;" x1="1312" x2="1632" y1="644.1719" y2="644.1719"/><ellipse cx="1322" cy="657.8203" fill="#84BE84" rx="3" ry="3" style="stroke:#038048;stroke-width:1.0;"/><text fill="#000000" font-family="sans-serif" font-size="14" lengthAdjust="spacing" textLength="144" x="1331" y="661.167">VentanaLogin():void</text><rect fill="#F24D5C" height="6" style="stroke:#C82930;stroke-width:1.0;" width="6" x="1319" y="671.1172"/><text fill="#000000" font-family="sans-serif" font-size="14" lengthAdjust="spacing" textLength="184" x="1331" y="677.4639">crearComponentes():void</text><rect fill="#F24D5C" height="6" style="stroke:#C82930;stroke-width:1.0;" width="6" x="1319" y="687.4141"/><text fill="#000000" font-family="sans-serif" font-size="14" lengthAdjust="spacing" textLength="171" x="1331" y="693.7607">mensajePassword():void</text><rect fill="#F24D5C" height="6" style="stroke:#C82930;stroke-width:1.0;" width="6" x="1319" y="703.7109"/><text fill="#000000" font-family="sans-serif" font-size="14" lengthAdjust="spacing" textLength="165" x="1331" y="710.0576">damePassword():String</text></g><!--class JFrame--><g id="elem_JFrame"><rect fill="#F1F1F1" height="48" id="JFrame" rx="2.5" ry="2.5" style="stroke:#181818;stroke-width:0.5;" width="81" x="1910.5" y="1062.7969"/><ellipse cx="1925.5" cy="1078.7969" fill="#ADD1B2" rx="11" ry="11" style="stroke:#181818;stroke-width:1.0;"/><path d="M1927.8438,1074.4688 C1926.9063,1074.0313 1926.3125,1073.8906 1925.4375,1073.8906 C1922.8125,1073.8906 1920.8125,1075.9688 1920.8125,1078.6875 L1920.8125,1079.8125 C1920.8125,1082.3906 1922.9219,1084.2813 1925.8125,1084.2813 C1927.0313,1084.2813 1928.1875,1083.9844 1928.9375,1083.4375 C1929.5156,1083.0313 1929.8438,1082.5781 1929.8438,1082.1875 C1929.8438,1081.7344 1929.4531,1081.3438 1928.9844,1081.3438 C1928.7656,1081.3438 1928.5625,1081.4219 1928.375,1081.6094 C1927.9219,1082.0938 1927.9219,1082.0938 1927.7344,1082.1875 C1927.3125,1082.4531 1926.625,1082.5781 1925.8594,1082.5781 C1923.8125,1082.5781 1922.5156,1081.4844 1922.5156,1079.7813 L1922.5156,1078.6875 C1922.5156,1076.9063 1923.7656,1075.5938 1925.5,1075.5938 C1926.0781,1075.5938 1926.6875,1075.75 1927.1563,1076 C1927.6406,1076.2813 1927.8125,1076.5 1927.9063,1076.9063 C1927.9688,1077.3125 1928,1077.4375 1928.1406,1077.5625 C1928.2813,1077.7031 1928.5156,1077.8125 1928.7344,1077.8125 C1929,1077.8125 1929.2656,1077.6719 1929.4375,1077.4531 C1929.5469,1077.2969 1929.5781,1077.1094 1929.5781,1076.6875 L1929.5781,1075.2656 C1929.5781,1074.8281 1929.5625,1074.7031 1929.4688,1074.5469 C1929.3125,1074.2813 1929.0313,1074.1406 1928.7344,1074.1406 C1928.4375,1074.1406 1928.2344,1074.2344 1928.0156,1074.5469 L1927.8438,1074.4688 Z " fill="#000000"/><text fill="#000000" font-family="sans-serif" font-size="14" lengthAdjust="spacing" textLength="49" x="1939.5" y="1083.6436">JFrame</text><line style="stroke:#181818;stroke-width:0.5;" x1="1911.5" x2="1990.5" y1="1094.7969" y2="1094.7969"/><line style="stroke:#181818;stroke-width:0.5;" x1="1911.5" x2="1990.5" y1="1102.7969" y2="1102.7969"/></g><!--class ActionListener--><g id="elem_ActionListener"><rect fill="#F1F1F1" height="48" id="ActionListener" rx="2.5" ry="2.5" style="stroke:#181818;stroke-width:0.5;" width="138" x="1570" y="1062.7969"/><ellipse cx="1585" cy="1078.7969" fill="#ADD1B2" rx="11" ry="11" style="stroke:#181818;stroke-width:1.0;"/><path d="M1587.3438,1074.4688 C1586.4063,1074.0313 1585.8125,1073.8906 1584.9375,1073.8906 C1582.3125,1073.8906 1580.3125,1075.9688 1580.3125,1078.6875 L1580.3125,1079.8125 C1580.3125,1082.3906 1582.4219,1084.2813 1585.3125,1084.2813 C1586.5313,1084.2813 1587.6875,1083.9844 1588.4375,1083.4375 C1589.0156,1083.0313 1589.3438,1082.5781 1589.3438,1082.1875 C1589.3438,1081.7344 1588.9531,1081.3438 1588.4844,1081.3438 C1588.2656,1081.3438 1588.0625,1081.4219 1587.875,1081.6094 C1587.4219,1082.0938 1587.4219,1082.0938 1587.2344,1082.1875 C1586.8125,1082.4531 1586.125,1082.5781 1585.3594,1082.5781 C1583.3125,1082.5781 1582.0156,1081.4844 1582.0156,1079.7813 L1582.0156,1078.6875 C1582.0156,1076.9063 1583.2656,1075.5938 1585,1075.5938 C1585.5781,1075.5938 1586.1875,1075.75 1586.6563,1076 C1587.1406,1076.2813 1587.3125,1076.5 1587.4063,1076.9063 C1587.4688,1077.3125 1587.5,1077.4375 1587.6406,1077.5625 C1587.7813,1077.7031 1588.0156,1077.8125 1588.2344,1077.8125 C1588.5,1077.8125 1588.7656,1077.6719 1588.9375,1077.4531 C1589.0469,1077.2969 1589.0781,1077.1094 1589.0781,1076.6875 L1589.0781,1075.2656 C1589.0781,1074.8281 1589.0625,1074.7031 1588.9688,1074.5469 C1588.8125,1074.2813 1588.5313,1074.1406 1588.2344,1074.1406 C1587.9375,1074.1406 1587.7344,1074.2344 1587.5156,1074.5469 L1587.3438,1074.4688 Z " fill="#000000"/><text fill="#000000" font-family="sans-serif" font-size="14" lengthAdjust="spacing" textLength="106" x="1599" y="1083.6436">ActionListener</text><line style="stroke:#181818;stroke-width:0.5;" x1="1571" x2="1707" y1="1094.7969" y2="1094.7969"/><line style="stroke:#181818;stroke-width:0.5;" x1="1571" x2="1707" y1="1102.7969" y2="1102.7969"/></g><!--class VentanaEmpleado--><g id="elem_VentanaEmpleado"><rect codeLine="132" fill="#F1F1F1" height="667.2813" id="VentanaEmpleado" rx="2.5" ry="2.5" style="stroke:#181818;stroke-width:0.5;" width="566" x="1668" y="262.2969"/><ellipse cx="1880.75" cy="278.2969" fill="#ADD1B2" rx="11" ry="11" style="stroke:#181818;stroke-width:1.0;"/><path d="M1883.0938,273.9688 C1882.1563,273.5313 1881.5625,273.3906 1880.6875,273.3906 C1878.0625,273.3906 1876.0625,275.4688 1876.0625,278.1875 L1876.0625,279.3125 C1876.0625,281.8906 1878.1719,283.7813 1881.0625,283.7813 C1882.2813,283.7813 1883.4375,283.4844 1884.1875,282.9375 C1884.7656,282.5313 1885.0938,282.0781 1885.0938,281.6875 C1885.0938,281.2344 1884.7031,280.8438 1884.2344,280.8438 C1884.0156,280.8438 1883.8125,280.9219 1883.625,281.1094 C1883.1719,281.5938 1883.1719,281.5938 1882.9844,281.6875 C1882.5625,281.9531 1881.875,282.0781 1881.1094,282.0781 C1879.0625,282.0781 1877.7656,280.9844 1877.7656,279.2813 L1877.7656,278.1875 C1877.7656,276.4063 1879.0156,275.0938 1880.75,275.0938 C1881.3281,275.0938 1881.9375,275.25 1882.4063,275.5 C1882.8906,275.7813 1883.0625,276 1883.1563,276.4063 C1883.2188,276.8125 1883.25,276.9375 1883.3906,277.0625 C1883.5313,277.2031 1883.7656,277.3125 1883.9844,277.3125 C1884.25,277.3125 1884.5156,277.1719 1884.6875,276.9531 C1884.7969,276.7969 1884.8281,276.6094 1884.8281,276.1875 L1884.8281,274.7656 C1884.8281,274.3281 1884.8125,274.2031 1884.7188,274.0469 C1884.5625,273.7813 1884.2813,273.6406 1883.9844,273.6406 C1883.6875,273.6406 1883.4844,273.7344 1883.2656,274.0469 L1883.0938,273.9688 Z " fill="#000000"/><text fill="#000000" font-family="sans-serif" font-size="14" lengthAdjust="spacing" textLength="132" x="1901.25" y="283.1436">VentanaEmpleado</text><line style="stroke:#181818;stroke-width:0.5;" x1="1669" x2="2233" y1="294.2969" y2="294.2969"/><rect fill="none" height="6" style="stroke:#C82930;stroke-width:1.0;" width="6" x="1676" y="304.9453"/><text fill="#000000" font-family="sans-serif" font-size="14" lengthAdjust="spacing" textLength="148" x="1688" y="311.292">Empleado empleado</text><rect fill="none" height="6" style="stroke:#C82930;stroke-width:1.0;" width="6" x="1676" y="321.2422"/><text fill="#000000" font-family="sans-serif" font-size="14" lengthAdjust="spacing" textLength="117" x="1688" y="327.5889">JLabel textLabel</text><rect fill="none" height="6" style="stroke:#C82930;stroke-width:1.0;" width="6" x="1676" y="337.5391"/><text fill="#000000" font-family="sans-serif" font-size="14" lengthAdjust="spacing" textLength="217" x="1688" y="343.8857">JLabel numeroEmpleadoJLabel</text><rect fill="none" height="6" style="stroke:#C82930;stroke-width:1.0;" width="6" x="1676" y="353.8359"/><text fill="#000000" font-family="sans-serif" font-size="14" lengthAdjust="spacing" textLength="147" x="1688" y="360.1826">JLabel nombreJLabel</text><rect fill="none" height="6" style="stroke:#C82930;stroke-width:1.0;" width="6" x="1676" y="370.1328"/><text fill="#000000" font-family="sans-serif" font-size="14" lengthAdjust="spacing" textLength="155" x="1688" y="376.4795">JLabel domicilioJLabel</text><rect fill="none" height="6" style="stroke:#C82930;stroke-width:1.0;" width="6" x="1676" y="386.4297"/><text fill="#000000" font-family="sans-serif" font-size="14" lengthAdjust="spacing" textLength="152" x="1688" y="392.7764">JLabel telefonoJLabel</text><rect fill="none" height="6" style="stroke:#C82930;stroke-width:1.0;" width="6" x="1676" y="402.7266"/><text fill="#000000" font-family="sans-serif" font-size="14" lengthAdjust="spacing" textLength="129" x="1688" y="409.0732">JLabel emailJLabel</text><rect fill="none" height="6" style="stroke:#C82930;stroke-width:1.0;" width="6" x="1676" y="419.0234"/><text fill="#000000" font-family="sans-serif" font-size="14" lengthAdjust="spacing" textLength="130" x="1688" y="425.3701">JLabel fechaJLabel</text><rect fill="none" height="6" style="stroke:#C82930;stroke-width:1.0;" width="6" x="1676" y="435.3203"/><text fill="#000000" font-family="sans-serif" font-size="14" lengthAdjust="spacing" textLength="141" x="1688" y="441.667">JLabel generoJLabel</text><rect fill="none" height="6" style="stroke:#C82930;stroke-width:1.0;" width="6" x="1676" y="451.6172"/><text fill="#000000" font-family="sans-serif" font-size="14" lengthAdjust="spacing" textLength="354" x="1688" y="457.9639">JComboBox&lt;Long&gt; numeroEmpleadoJComboBox</text><rect fill="none" height="6" style="stroke:#C82930;stroke-width:1.0;" width="6" x="1676" y="467.9141"/><text fill="#000000" font-family="sans-serif" font-size="14" lengthAdjust="spacing" textLength="203" x="1688" y="474.2607">JTextField nombreJTextField</text><rect fill="none" height="6" style="stroke:#C82930;stroke-width:1.0;" width="6" x="1676" y="484.2109"/><text fill="#000000" font-family="sans-serif" font-size="14" lengthAdjust="spacing" textLength="211" x="1688" y="490.5576">JTextField domicilioJTextField</text><rect fill="none" height="6" style="stroke:#C82930;stroke-width:1.0;" width="6" x="1676" y="500.5078"/><text fill="#000000" font-family="sans-serif" font-size="14" lengthAdjust="spacing" textLength="208" x="1688" y="506.8545">JTextField telefonoJTextField</text><rect fill="none" height="6" style="stroke:#C82930;stroke-width:1.0;" width="6" x="1676" y="516.8047"/><text fill="#000000" font-family="sans-serif" font-size="14" lengthAdjust="spacing" textLength="185" x="1688" y="523.1514">JTextField emailJTextField</text><rect fill="none" height="6" style="stroke:#C82930;stroke-width:1.0;" width="6" x="1676" y="533.1016"/><text fill="#000000" font-family="sans-serif" font-size="14" lengthAdjust="spacing" textLength="240" x="1688" y="539.4482">JDateChooser fehcaJDateChooser</text><rect fill="none" height="6" style="stroke:#C82930;stroke-width:1.0;" width="6" x="1676" y="549.3984"/><text fill="#000000" font-family="sans-serif" font-size="14" lengthAdjust="spacing" textLength="287" x="1688" y="555.7451">JComboBox&lt;String&gt; generoJComboBox</text><rect fill="none" height="6" style="stroke:#C82930;stroke-width:1.0;" width="6" x="1676" y="565.6953"/><text fill="#000000" font-family="sans-serif" font-size="14" lengthAdjust="spacing" textLength="159" x="1688" y="572.042">JButton buscarJButton</text><rect fill="none" height="6" style="stroke:#C82930;stroke-width:1.0;" width="6" x="1676" y="581.9922"/><text fill="#000000" font-family="sans-serif" font-size="14" lengthAdjust="spacing" textLength="166" x="1688" y="588.3389">JButton guardarJButton</text><rect fill="none" height="6" style="stroke:#C82930;stroke-width:1.0;" width="6" x="1676" y="598.2891"/><text fill="#000000" font-family="sans-serif" font-size="14" lengthAdjust="spacing" textLength="180" x="1688" y="604.6357">JButton modificarJButton</text><rect fill="none" height="6" style="stroke:#C82930;stroke-width:1.0;" width="6" x="1676" y="614.5859"/><text fill="#000000" font-family="sans-serif" font-size="14" lengthAdjust="spacing" textLength="170" x="1688" y="620.9326">JButton eliminarJButton</text><rect fill="none" height="6" style="stroke:#C82930;stroke-width:1.0;" width="6" x="1676" y="630.8828"/><text fill="#000000" font-family="sans-serif" font-size="14" lengthAdjust="spacing" textLength="162" x="1688" y="637.2295">JButton limpiarJButton</text><line style="stroke:#181818;stroke-width:0.5;" x1="1669" x2="2233" y1="644.5313" y2="644.5313"/><rect fill="#F24D5C" height="6" style="stroke:#C82930;stroke-width:1.0;" width="6" x="1676" y="655.1797"/><text fill="#000000" font-family="sans-serif" font-size="14" lengthAdjust="spacing" textLength="481" x="1688" y="661.5264">GenerosRepository generosRepository = new GenerosRepository()</text><rect fill="#F24D5C" height="6" style="stroke:#C82930;stroke-width:1.0;" width="6" x="1676" y="671.4766"/><text fill="#000000" font-family="sans-serif" font-size="14" lengthAdjust="spacing" textLength="540" x="1688" y="677.8232">EmpleadosRepository empleadosRepository = new EmpleadosRepository()</text><rect fill="#F24D5C" height="6" style="stroke:#C82930;stroke-width:1.0;" width="6" x="1676" y="687.7734"/><text fill="#000000" font-family="sans-serif" font-size="14" lengthAdjust="spacing" textLength="184" x="1688" y="694.1201">VentanaEmpleados():void</text><rect fill="#F24D5C" height="6" style="stroke:#C82930;stroke-width:1.0;" width="6" x="1676" y="704.0703"/><text fill="#000000" font-family="sans-serif" font-size="14" lengthAdjust="spacing" textLength="184" x="1688" y="710.417">crearComponentes():void</text><rect fill="#F24D5C" height="6" style="stroke:#C82930;stroke-width:1.0;" width="6" x="1676" y="720.3672"/><text fill="#000000" font-family="sans-serif" font-size="14" lengthAdjust="spacing" textLength="187" x="1688" y="726.7139">recuperarEmpleado():void</text><rect fill="#F24D5C" height="6" style="stroke:#C82930;stroke-width:1.0;" width="6" x="1676" y="736.6641"/><text fill="#000000" font-family="sans-serif" font-size="14" lengthAdjust="spacing" textLength="171" x="1688" y="743.0107">guardarEmpleado():void</text><rect fill="#F24D5C" height="6" style="stroke:#C82930;stroke-width:1.0;" width="6" x="1676" y="752.9609"/><text fill="#000000" font-family="sans-serif" font-size="14" lengthAdjust="spacing" textLength="185" x="1688" y="759.3076">modificarEmpleado():void</text><rect fill="#F24D5C" height="6" style="stroke:#C82930;stroke-width:1.0;" width="6" x="1676" y="769.2578"/><text fill="#000000" font-family="sans-serif" font-size="14" lengthAdjust="spacing" textLength="175" x="1688" y="775.6045">eliminarEmpleado():void</text><rect fill="#F24D5C" height="6" style="stroke:#C82930;stroke-width:1.0;" width="6" x="1676" y="785.5547"/><text fill="#000000" font-family="sans-serif" font-size="14" lengthAdjust="spacing" textLength="153" x="1688" y="791.9014">limpiarCampos():void</text><rect fill="#F24D5C" height="6" style="stroke:#C82930;stroke-width:1.0;" width="6" x="1676" y="801.8516"/><text fill="#000000" font-family="sans-serif" font-size="14" lengthAdjust="spacing" textLength="199" x="1688" y="808.1982">dameEmpleado():Empleado</text><rect fill="#F24D5C" height="6" style="stroke:#C82930;stroke-width:1.0;" width="6" x="1676" y="818.1484"/><text fill="#000000" font-family="sans-serif" font-size="14" lengthAdjust="spacing" textLength="165" x="1688" y="824.4951">actualizaPantalla():void</text><rect fill="#F24D5C" height="6" style="stroke:#C82930;stroke-width:1.0;" width="6" x="1676" y="834.4453"/><text fill="#000000" font-family="sans-serif" font-size="14" lengthAdjust="spacing" textLength="159" x="1688" y="840.792">llenarConboBox():void</text><rect fill="#F24D5C" height="6" style="stroke:#C82930;stroke-width:1.0;" width="6" x="1676" y="850.7422"/><text fill="#000000" font-family="sans-serif" font-size="14" lengthAdjust="spacing" textLength="159" x="1688" y="857.0889">validarVacio():boolean</text><rect fill="#F24D5C" height="6" style="stroke:#C82930;stroke-width:1.0;" width="6" x="1676" y="867.0391"/><text fill="#000000" font-family="sans-serif" font-size="14" lengthAdjust="spacing" textLength="144" x="1688" y="873.3857">mensajeVacio():void</text><rect fill="#F24D5C" height="6" style="stroke:#C82930;stroke-width:1.0;" width="6" x="1676" y="883.3359"/><text fill="#000000" font-family="sans-serif" font-size="14" lengthAdjust="spacing" textLength="166" x="1688" y="889.6826">mensajeSelecion():void</text><rect fill="#F24D5C" height="6" style="stroke:#C82930;stroke-width:1.0;" width="6" x="1676" y="899.6328"/><text fill="#000000" font-family="sans-serif" font-size="14" lengthAdjust="spacing" textLength="435" x="1688" y="905.9795">mensajeConfirmacion(String mensaje,String accion):boolean</text><rect fill="#F24D5C" height="6" style="stroke:#C82930;stroke-width:1.0;" width="6" x="1676" y="915.9297"/><text fill="#000000" font-family="sans-serif" font-size="14" lengthAdjust="spacing" textLength="174" x="1688" y="922.2764">mensajeEmailErro():void</text></g><!--class VentanaRegistro--><g id="elem_VentanaRegistro"><rect codeLine="173" fill="#F1F1F1" height="308.75" id="VentanaRegistro" rx="2.5" ry="2.5" style="stroke:#181818;stroke-width:0.5;" width="322" x="2269" y="441.2969"/><ellipse cx="2365.25" cy="457.2969" fill="#ADD1B2" rx="11" ry="11" style="stroke:#181818;stroke-width:1.0;"/><path d="M2367.5938,452.9688 C2366.6563,452.5313 2366.0625,452.3906 2365.1875,452.3906 C2362.5625,452.3906 2360.5625,454.4688 2360.5625,457.1875 L2360.5625,458.3125 C2360.5625,460.8906 2362.6719,462.7813 2365.5625,462.7813 C2366.7813,462.7813 2367.9375,462.4844 2368.6875,461.9375 C2369.2656,461.5313 2369.5938,461.0781 2369.5938,460.6875 C2369.5938,460.2344 2369.2031,459.8438 2368.7344,459.8438 C2368.5156,459.8438 2368.3125,459.9219 2368.125,460.1094 C2367.6719,460.5938 2367.6719,460.5938 2367.4844,460.6875 C2367.0625,460.9531 2366.375,461.0781 2365.6094,461.0781 C2363.5625,461.0781 2362.2656,459.9844 2362.2656,458.2813 L2362.2656,457.1875 C2362.2656,455.4063 2363.5156,454.0938 2365.25,454.0938 C2365.8281,454.0938 2366.4375,454.25 2366.9063,454.5 C2367.3906,454.7813 2367.5625,455 2367.6563,455.4063 C2367.7188,455.8125 2367.75,455.9375 2367.8906,456.0625 C2368.0313,456.2031 2368.2656,456.3125 2368.4844,456.3125 C2368.75,456.3125 2369.0156,456.1719 2369.1875,455.9531 C2369.2969,455.7969 2369.3281,455.6094 2369.3281,455.1875 L2369.3281,453.7656 C2369.3281,453.3281 2369.3125,453.2031 2369.2188,453.0469 C2369.0625,452.7813 2368.7813,452.6406 2368.4844,452.6406 C2368.1875,452.6406 2367.9844,452.7344 2367.7656,453.0469 L2367.5938,452.9688 Z " fill="#000000"/><text fill="#000000" font-family="sans-serif" font-size="14" lengthAdjust="spacing" textLength="121" x="2385.75" y="462.1436">VentanaRegistro</text><line style="stroke:#181818;stroke-width:0.5;" x1="2270" x2="2590" y1="473.2969" y2="473.2969"/><rect fill="none" height="6" style="stroke:#C82930;stroke-width:1.0;" width="6" x="2277" y="483.9453"/><text fill="#000000" font-family="sans-serif" font-size="14" lengthAdjust="spacing" textLength="236" x="2289" y="490.292">LoginRepository loginRepository</text><rect fill="none" height="6" style="stroke:#C82930;stroke-width:1.0;" width="6" x="2277" y="500.2422"/><text fill="#000000" font-family="sans-serif" font-size="14" lengthAdjust="spacing" textLength="140" x="2289" y="506.5889">boolean mostrando</text><rect fill="none" height="6" style="stroke:#C82930;stroke-width:1.0;" width="6" x="2277" y="516.5391"/><text fill="#000000" font-family="sans-serif" font-size="14" lengthAdjust="spacing" textLength="121" x="2289" y="522.8857">JLabel textJLabel</text><rect fill="none" height="6" style="stroke:#C82930;stroke-width:1.0;" width="6" x="2277" y="532.8359"/><text fill="#000000" font-family="sans-serif" font-size="14" lengthAdjust="spacing" textLength="147" x="2289" y="539.1826">JLabel nombreJLabel</text><rect fill="none" height="6" style="stroke:#C82930;stroke-width:1.0;" width="6" x="2277" y="549.1328"/><text fill="#000000" font-family="sans-serif" font-size="14" lengthAdjust="spacing" textLength="129" x="2289" y="555.4795">JLabel emailJLabel</text><rect fill="none" height="6" style="stroke:#C82930;stroke-width:1.0;" width="6" x="2277" y="565.4297"/><text fill="#000000" font-family="sans-serif" font-size="14" lengthAdjust="spacing" textLength="127" x="2289" y="571.7764">JLabel usuarJLabel</text><rect fill="none" height="6" style="stroke:#C82930;stroke-width:1.0;" width="6" x="2277" y="581.7266"/><text fill="#000000" font-family="sans-serif" font-size="14" lengthAdjust="spacing" textLength="174" x="2289" y="588.0732">JLabel contraseniaJLabel</text><rect fill="none" height="6" style="stroke:#C82930;stroke-width:1.0;" width="6" x="2277" y="598.0234"/><text fill="#000000" font-family="sans-serif" font-size="14" lengthAdjust="spacing" textLength="203" x="2289" y="604.3701">JTextField nombreJTextField</text><rect fill="none" height="6" style="stroke:#C82930;stroke-width:1.0;" width="6" x="2277" y="614.3203"/><text fill="#000000" font-family="sans-serif" font-size="14" lengthAdjust="spacing" textLength="185" x="2289" y="620.667">JTextField emailJTextField</text><rect fill="none" height="6" style="stroke:#C82930;stroke-width:1.0;" width="6" x="2277" y="630.6172"/><text fill="#000000" font-family="sans-serif" font-size="14" lengthAdjust="spacing" textLength="196" x="2289" y="636.9639">JTextField usuarioJTextField</text><rect fill="none" height="6" style="stroke:#C82930;stroke-width:1.0;" width="6" x="2277" y="646.9141"/><text fill="#000000" font-family="sans-serif" font-size="14" lengthAdjust="spacing" textLength="296" x="2289" y="653.2607">JPasswordField contraseniaJPasswordField</text><rect fill="none" height="6" style="stroke:#C82930;stroke-width:1.0;" width="6" x="2277" y="663.2109"/><text fill="#000000" font-family="sans-serif" font-size="14" lengthAdjust="spacing" textLength="155" x="2289" y="669.5576">JRadioButton mostrar</text><rect fill="none" height="6" style="stroke:#C82930;stroke-width:1.0;" width="6" x="2277" y="679.5078"/><text fill="#000000" font-family="sans-serif" font-size="14" lengthAdjust="spacing" textLength="174" x="2289" y="685.8545">JButton registrarJButton</text><line style="stroke:#181818;stroke-width:0.5;" x1="2270" x2="2590" y1="693.1563" y2="693.1563"/><ellipse cx="2280" cy="706.8047" fill="#84BE84" rx="3" ry="3" style="stroke:#038048;stroke-width:1.0;"/><text fill="#000000" font-family="sans-serif" font-size="14" lengthAdjust="spacing" textLength="166" x="2289" y="710.1514">VentanaRegistro():void</text><rect fill="#F24D5C" height="6" style="stroke:#C82930;stroke-width:1.0;" width="6" x="2277" y="720.1016"/><text fill="#000000" font-family="sans-serif" font-size="14" lengthAdjust="spacing" textLength="184" x="2289" y="726.4482">crearComponentes():void</text><rect fill="#F24D5C" height="6" style="stroke:#C82930;stroke-width:1.0;" width="6" x="2277" y="736.3984"/><text fill="#000000" font-family="sans-serif" font-size="14" lengthAdjust="spacing" textLength="159" x="2289" y="742.7451">validarVacio():boolean</text></g><g id="elem_GMN45"><path d="M1739,149.2969 L1739,174.4297 A0,0 0 0 0 1739,174.4297 L1947,174.4297 L1951,262.1069 L1955,174.4297 L2163,174.4297 A0,0 0 0 0 2163,174.4297 L2163,159.2969 L2153,149.2969 L1739,149.2969 A0,0 0 0 0 1739,149.2969 " fill="#FEFFDD" style="stroke:#181818;stroke-width:0.5;"/><path d="M2153,149.2969 L2153,159.2969 L2163,159.2969 L2153,149.2969 " fill="#FEFFDD" style="stroke:#181818;stroke-width:0.5;"/><text fill="#000000" font-family="sans-serif" font-size="13" lengthAdjust="spacing" textLength="403" x="1745" y="166.3638">Utilizar jcalendar-1.4.jar para JDateChooser fehcaJDateChooser</text></g><!--class Pasword--><g id="elem_Pasword"><rect codeLine="194" fill="#F1F1F1" height="80.5938" id="Pasword" rx="2.5" ry="2.5" style="stroke:#181818;stroke-width:0.5;" width="504" x="558" y="121.2969"/><ellipse cx="776.25" cy="137.2969" fill="#ADD1B2" rx="11" ry="11" style="stroke:#181818;stroke-width:1.0;"/><path d="M778.5938,132.9688 C777.6563,132.5313 777.0625,132.3906 776.1875,132.3906 C773.5625,132.3906 771.5625,134.4688 771.5625,137.1875 L771.5625,138.3125 C771.5625,140.8906 773.6719,142.7813 776.5625,142.7813 C777.7813,142.7813 778.9375,142.4844 779.6875,141.9375 C780.2656,141.5313 780.5938,141.0781 780.5938,140.6875 C780.5938,140.2344 780.2031,139.8438 779.7344,139.8438 C779.5156,139.8438 779.3125,139.9219 779.125,140.1094 C778.6719,140.5938 778.6719,140.5938 778.4844,140.6875 C778.0625,140.9531 777.375,141.0781 776.6094,141.0781 C774.5625,141.0781 773.2656,139.9844 773.2656,138.2813 L773.2656,137.1875 C773.2656,135.4063 774.5156,134.0938 776.25,134.0938 C776.8281,134.0938 777.4375,134.25 777.9063,134.5 C778.3906,134.7813 778.5625,135 778.6563,135.4063 C778.7188,135.8125 778.75,135.9375 778.8906,136.0625 C779.0313,136.2031 779.2656,136.3125 779.4844,136.3125 C779.75,136.3125 780.0156,136.1719 780.1875,135.9531 C780.2969,135.7969 780.3281,135.6094 780.3281,135.1875 L780.3281,133.7656 C780.3281,133.3281 780.3125,133.2031 780.2188,133.0469 C780.0625,132.7813 779.7813,132.6406 779.4844,132.6406 C779.1875,132.6406 778.9844,132.7344 778.7656,133.0469 L778.5938,132.9688 Z " fill="#000000"/><text fill="#000000" font-family="sans-serif" font-size="14" lengthAdjust="spacing" textLength="59" x="796.75" y="142.1436">Pasword</text><line style="stroke:#181818;stroke-width:0.5;" x1="559" x2="1061" y1="153.2969" y2="153.2969"/><line style="stroke:#181818;stroke-width:0.5;" x1="559" x2="1061" y1="161.2969" y2="161.2969"/><ellipse cx="569" cy="174.9453" fill="#84BE84" rx="3" ry="3" style="stroke:#038048;stroke-width:1.0;"/><text fill="#000000" font-family="sans-serif" font-size="14" lengthAdjust="spacing" text-decoration="underline" textLength="278" x="578" y="178.292">cifrarPassword(String password):String</text><ellipse cx="569" cy="191.2422" fill="#84BE84" rx="3" ry="3" style="stroke:#038048;stroke-width:1.0;"/><text fill="#000000" font-family="sans-serif" font-size="14" lengthAdjust="spacing" text-decoration="underline" textLength="478" x="578" y="194.5889">verificaPassword(String password,String passwordCifrado):boolean</text></g><g id="elem_GMN50"><path d="M1097,149.2969 L1097,157.7969 L1062.34,161.7969 L1097,165.7969 L1097,174.4297 A0,0 0 0 0 1097,174.4297 L1255,174.4297 A0,0 0 0 0 1255,174.4297 L1255,159.2969 L1245,149.2969 L1097,149.2969 A0,0 0 0 0 1097,149.2969 " fill="#FEFFDD" style="stroke:#181818;stroke-width:0.5;"/><path d="M1245,149.2969 L1245,159.2969 L1255,159.2969 L1245,149.2969 " fill="#FEFFDD" style="stroke:#181818;stroke-width:0.5;"/><text fill="#000000" font-family="sans-serif" font-size="13" lengthAdjust="spacing" textLength="137" x="1103" y="166.3638">Utilizar jBCrypt.0.4.jar</text></g><!--class ValidaEmail--><g id="elem_ValidaEmail"><rect codeLine="199" fill="#F1F1F1" height="64.2969" id="ValidaEmail" rx="2.5" ry="2.5" style="stroke:#181818;stroke-width:0.5;" width="271" x="251.5" y="129.7969"/><ellipse cx="341.75" cy="145.7969" fill="#ADD1B2" rx="11" ry="11" style="stroke:#181818;stroke-width:1.0;"/><path d="M344.0938,141.4688 C343.1563,141.0313 342.5625,140.8906 341.6875,140.8906 C339.0625,140.8906 337.0625,142.9688 337.0625,145.6875 L337.0625,146.8125 C337.0625,149.3906 339.1719,151.2813 342.0625,151.2813 C343.2813,151.2813 344.4375,150.9844 345.1875,150.4375 C345.7656,150.0313 346.0938,149.5781 346.0938,149.1875 C346.0938,148.7344 345.7031,148.3438 345.2344,148.3438 C345.0156,148.3438 344.8125,148.4219 344.625,148.6094 C344.1719,149.0938 344.1719,149.0938 343.9844,149.1875 C343.5625,149.4531 342.875,149.5781 342.1094,149.5781 C340.0625,149.5781 338.7656,148.4844 338.7656,146.7813 L338.7656,145.6875 C338.7656,143.9063 340.0156,142.5938 341.75,142.5938 C342.3281,142.5938 342.9375,142.75 343.4063,143 C343.8906,143.2813 344.0625,143.5 344.1563,143.9063 C344.2188,144.3125 344.25,144.4375 344.3906,144.5625 C344.5313,144.7031 344.7656,144.8125 344.9844,144.8125 C345.25,144.8125 345.5156,144.6719 345.6875,144.4531 C345.7969,144.2969 345.8281,144.1094 345.8281,143.6875 L345.8281,142.2656 C345.8281,141.8281 345.8125,141.7031 345.7188,141.5469 C345.5625,141.2813 345.2813,141.1406 344.9844,141.1406 C344.6875,141.1406 344.4844,141.2344 344.2656,141.5469 L344.0938,141.4688 Z " fill="#000000"/><text fill="#000000" font-family="sans-serif" font-size="14" lengthAdjust="spacing" textLength="82" x="362.25" y="150.6436">ValidaEmail</text><line style="stroke:#181818;stroke-width:0.5;" x1="252.5" x2="521.5" y1="161.7969" y2="161.7969"/><line style="stroke:#181818;stroke-width:0.5;" x1="252.5" x2="521.5" y1="169.7969" y2="169.7969"/><ellipse cx="262.5" cy="183.4453" fill="#84BE84" rx="3" ry="3" style="stroke:#038048;stroke-width:1.0;"/><text fill="#000000" font-family="sans-serif" font-size="14" lengthAdjust="spacing" text-decoration="underline" textLength="245" x="271.5" y="186.792">isValidEmail(String email):boolean</text></g><!--reverse link EmpleadoRepository to IE--><g id="link_EmpleadoRepository_IE"><path codeLine="60" d="M3505.6068,1144.6149 C3480.0768,1159.7139 3472.26,1170.1129 3457,1195.2969 C3404.7,1281.5739 3427.91,1325.6939 3457,1422.2969 C3475.3,1483.0689 3525.96,1541.9349 3548.69,1566.1899 " fill="none" id="EmpleadoRepository-backto-IE" style="stroke:#181818;stroke-width:1.0;stroke-dasharray:7.0,7.0;"/><polygon fill="none" points="3521.1,1135.4519,3502.5525,1139.4505,3508.6611,1149.7793,3521.1,1135.4519" style="stroke:#181818;stroke-width:1.0;"/></g><!--link IE to RepositoryInterface--><g id="link_IE_RepositoryInterface"><path codeLine="61" d="M3554.13,1591.5169 C3547.49,1621.2859 3545.66,1701.5289 3548.63,1759.1399 " fill="none" id="IE-RepositoryInterface" style="stroke:#181818;stroke-width:1.0;stroke-dasharray:7.0,7.0;"/></g><!--link IE to RepositoryInterface--><g id="link_IE_RepositoryInterface"><path codeLine="63" d="M3566.22,1591.5169 C3573.25,1621.2859 3575.19,1701.5289 3572.04,1759.1399 " fill="none" id="IE-RepositoryInterface-1" style="stroke:#181818;stroke-width:1.0;stroke-dasharray:7.0,7.0;"/></g><!--reverse link GenerosRepository to IE--><g id="link_GenerosRepository_IE"><path codeLine="62" d="M3657.5907,1353.8218 C3629.3507,1418.6428 3581.83,1527.7009 3565.03,1566.2559 " fill="none" id="GenerosRepository-backto-IE" style="stroke:#181818;stroke-width:1.0;stroke-dasharray:7.0,7.0;"/><polygon fill="none" points="3664.78,1337.3199,3652.0901,1351.4254,3663.0914,1356.2183,3664.78,1337.3199" style="stroke:#181818;stroke-width:1.0;"/></g><!--reverse link EmpleadoRepository to GenerosRepository--><g id="link_EmpleadoRepository_GenerosRepository"><path codeLine="64" d="M3668.4514,1147.4661 C3671.7814,1183.9281 3675.23,1221.6459 3678.36,1255.9849 " fill="none" id="EmpleadoRepository-backto-GenerosRepository" style="stroke:#181818;stroke-width:1.0;"/><polygon fill="none" points="3667.36,1135.5159,3663.9223,1141.8548,3668.4514,1147.4661,3671.8891,1141.1272,3667.36,1135.5159" style="stroke:#181818;stroke-width:1.0;"/></g><!--reverse link EmpleadoRepository to Empleado--><g id="link_EmpleadoRepository_Empleado"><path codeLine="66" d="M3424.0307,1134.5135 C3418.0107,1135.4095 3423.9,1134.4949 3418,1135.2969 C3249.47,1158.1859 2807.67,1120.3289 2655,1195.2969 C2534.31,1254.5639 2441.28,1381.6119 2386.49,1473.0409 " fill="none" id="EmpleadoRepository-backto-Empleado" style="stroke:#181818;stroke-width:1.0;"/><polygon fill="#181818" points="3435.9,1132.7469,3429.3765,1129.6738,3424.0307,1134.5135,3430.5542,1137.5866,3435.9,1132.7469" style="stroke:#181818;stroke-width:1.0;"/></g><!--reverse link GenerosRepository to Genero--><g id="link_GenerosRepository_Genero"><path codeLine="67" d="M3462.1274,1329.7359 C3317.1574,1352.6699 3131.77,1385.9679 2961,1430.2969 C2827.19,1465.0319 2675.12,1520.1809 2590.58,1552.2899 " fill="none" id="GenerosRepository-backto-Genero" style="stroke:#181818;stroke-width:1.0;"/><polygon fill="#181818" points="3473.98,1327.8609,3467.4287,1324.8475,3462.1274,1329.7359,3468.6787,1332.7493,3473.98,1327.8609" style="stroke:#181818;stroke-width:1.0;"/></g><!--reverse link LoginRepository to Login--><g id="link_LoginRepository_Login"><path codeLine="68" d="M2965.584,1130.6281 C2951.924,1132.9801 2950.19,1133.2009 2937,1135.2969 C2732.07,1167.8609 2661.94,1107.3439 2474,1195.2969 C2340.12,1257.9499 2233.73,1397.3069 2174.54,1489.3779 " fill="none" id="LoginRepository-backto-Login" style="stroke:#181818;stroke-width:1.0;"/><polygon fill="#181818" points="2977.41,1128.5919,2970.8183,1125.668,2965.584,1130.6281,2972.1757,1133.552,2977.41,1128.5919" style="stroke:#181818;stroke-width:1.0;"/></g><!--reverse link VentanaLogin to LoginRepository--><g id="link_VentanaLogin_LoginRepository"><path codeLine="107" d="M1506.6093,729.3388 C1532.5293,804.3488 1574.03,883.4769 1650,929.2969 C1665.31,938.5269 2919.77,932.5369 2937,937.2969 C3008.47,957.0269 3080.38,1002.5529 3128.99,1038.0339 " fill="none" id="VentanaLogin-backto-LoginRepository" style="stroke:#181818;stroke-width:1.0;"/><polygon fill="#181818" points="1502.69,717.9969,1500.869,724.9743,1506.6093,729.3388,1508.4303,722.3614,1502.69,717.9969" style="stroke:#181818;stroke-width:1.0;"/></g><!--reverse link VentanaLogin to JFrame--><g id="link_VentanaLogin_JFrame"><path codeLine="108" d="M1511.3151,734.8854 C1538.0151,808.3954 1577.23,880.2769 1650,929.2969 C1677.8,948.0249 1693.44,925.9969 1725,937.2969 C1805.22,966.0189 1885.29,1028.6589 1925.1,1062.6849 " fill="none" id="VentanaLogin-backto-JFrame" style="stroke:#181818;stroke-width:1.0;"/><polygon fill="none" points="1505.17,717.9669,1505.6756,736.9338,1516.9546,732.8371,1505.17,717.9669" style="stroke:#181818;stroke-width:1.0;"/></g><!--reverse link VentanaLogin to ActionListener--><g id="link_VentanaLogin_ActionListener"><path codeLine="109" d="M1519.2078,735.0208 C1559.0078,851.5508 1610.27,1001.6719 1631.05,1062.5209 " fill="none" id="VentanaLogin-backto-ActionListener" style="stroke:#181818;stroke-width:1.0;stroke-dasharray:7.0,7.0;"/><polygon fill="none" points="1513.39,717.9869,1513.5298,736.96,1524.8858,733.0815,1513.39,717.9869" style="stroke:#181818;stroke-width:1.0;"/></g><!--reverse link VentanaEmpleado to EmpleadoRepository--><g id="link_VentanaEmpleado_EmpleadoRepository"><path codeLine="110" d="M2244.827,926.6737 C2250.377,929.5337 2245.33,926.7469 2251,929.2969 C2280.58,942.5669 3386.81,928.4669 3418,937.2969 C3487.87,957.0779 3557.73,1002.5969 3604.87,1038.0619 " fill="none" id="VentanaEmpleado-backto-EmpleadoRepository" style="stroke:#181818;stroke-width:1.0;"/><polygon fill="#181818" points="2234.16,921.1769,2237.6612,927.481,2244.827,926.6737,2241.3258,920.3696,2234.16,921.1769" style="stroke:#181818;stroke-width:1.0;"/></g><!--reverse link VentanaEmpleado to GenerosRepository--><g id="link_VentanaEmpleado_GenerosRepository"><path codeLine="111" d="M2244.827,926.6837 C2250.377,929.5437 2245.32,926.7569 2251,929.2969 C2272.01,938.6969 3891.77,920.9869 3908,937.2969 C3939.04,968.4849 3928.19,1096.2009 3908,1135.2969 C3879.85,1189.8159 3823.68,1229.8409 3774.38,1256.2859 " fill="none" id="VentanaEmpleado-backto-GenerosRepository" style="stroke:#181818;stroke-width:1.0;"/><polygon fill="#181818" points="2234.16,921.1869,2237.6612,927.491,2244.827,926.6837,2241.3258,920.3796,2234.16,921.1869" style="stroke:#181818;stroke-width:1.0;"/></g><!--reverse link VentanaEmpleado to JFrame--><g id="link_VentanaEmpleado_JFrame"><path codeLine="112" d="M1951,947.3969 C1951,1003.9769 1951,1035.2949 1951,1062.7469 " fill="none" id="VentanaEmpleado-backto-JFrame" style="stroke:#181818;stroke-width:1.0;"/><polygon fill="none" points="1951,929.3969,1945,947.3969,1957,947.3969,1951,929.3969" style="stroke:#181818;stroke-width:1.0;"/></g><!--reverse link VentanaEmpleado to ActionListener--><g id="link_VentanaEmpleado_ActionListener"><path codeLine="113" d="M1729.1082,944.5713 C1693.0082,1001.1513 1671.22,1035.2949 1653.71,1062.7469 " fill="none" id="VentanaEmpleado-backto-ActionListener" style="stroke:#181818;stroke-width:1.0;stroke-dasharray:7.0,7.0;"/><polygon fill="none" points="1738.79,929.3969,1724.0501,941.344,1734.1663,947.7986,1738.79,929.3969" style="stroke:#181818;stroke-width:1.0;"/></g><!--reverse link VentanaRegistro to LoginRepository--><g id="link_VentanaRegistro_LoginRepository"><path codeLine="114" d="M2601.5176,707.2961 C2763.2176,811.4761 2994.78,960.6669 3115.23,1038.2689 " fill="none" id="VentanaRegistro-backto-LoginRepository" style="stroke:#181818;stroke-width:1.0;"/><polygon fill="#181818" points="2591.43,700.7969,2594.3074,707.409,2601.5176,707.2961,2598.6402,700.684,2591.43,700.7969" style="stroke:#181818;stroke-width:1.0;"/></g><!--reverse link VentanaRegistro to GenerosRepository--><g id="link_VentanaRegistro_GenerosRepository"><path codeLine="115" d="M2603.1584,609.555 C2956.2484,639.025 3767.88,728.1469 3935,937.2969 C3989.93,1006.0459 3977.4,1058.1859 3935,1135.2969 C3904.17,1191.3609 3844.56,1230.6019 3790.95,1256.2439 " fill="none" id="VentanaRegistro-backto-GenerosRepository" style="stroke:#181818;stroke-width:1.0;"/><polygon fill="#181818" points="2591.2,608.5569,2596.8465,613.0421,2603.1584,609.555,2597.5119,605.0698,2591.2,608.5569" style="stroke:#181818;stroke-width:1.0;"/></g><!--reverse link VentanaRegistro to JFrame--><g id="link_VentanaRegistro_JFrame"><path codeLine="116" d="M2363.0714,766.8037 C2333.9214,827.9237 2301.74,879.2169 2251,929.2969 C2174.49,1004.8159 2054.07,1052.3379 1991.61,1073.2999 " fill="none" id="VentanaRegistro-backto-JFrame" style="stroke:#181818;stroke-width:1.0;"/><polygon fill="none" points="2370.82,750.5569,2357.6558,764.2208,2368.487,769.3866,2370.82,750.5569" style="stroke:#181818;stroke-width:1.0;"/></g><!--SRC=[jLXDRnit4BthLn0voN4aj4KEXQi8Y1qvS60KXgtcKkH0SQartLroIrAE7KN_lSFbajeFSbU9N1qIQ_aud7axypWZBGga1Le9hKME4YOfqKpmaMOwe-X6YcTu82uPnzbeL63o3qufKf9iHmW-9CDAeVT5OR-QpodQAeqr8pkKOyR7Treodlxz1M6PgfEpHy6I4hih_tKMSv7GJ6r7teorlCYBZE94xCsRpmHT2vwYoj3-gJqASP6l90sl9I9dX6LCX9SrpUXQyCWgXO2orj87h2bQKtAF_yI4vOnotTxzaN8g1KhB_nfhfpx0SOsP_MfAjQPImUAojQ82AxisUzSYPVp5g0j5Norjr0RB6AT4S2snefpXLX2bV_zBv9RoOqC_hUoyZ8irHrtMCmwuDIQqblZ-6RgbXL1C2_byvPxDbdEqRPssH52pcu9ABA-ISHNZoHzjhfdIPhV7BaKYmCKspWIAS2ffYkLuYI2TMOAJC0oAbgqP6GRI32g3Ht11Pf8LcisWjl0ACcS-1tuyta6afqSrAU42Il8LCvMLmt5Oefng4-qhX1MwMemQQ5U1UxRHxFjqQd1rsDK2mSF0AscWRBwe5x4LS4nC9jqZ1iDv3RlSum5lN_i36i2oK5kmybdpxAPcx_7DrrCNnThPDVDf9yJk_WJdrEGqTiUfyIrLcqpVKGsfKVrrSbRclSFC8uOMDYczWR0fps73oYx4GIUwRLy85Red08iuplt0UmtwtdhPNSzFGQFW4iNoZYfe5SRDI-1DL_PFpbP207KyOCf9JNcgLuUktlvej3Ozcy46mdPY0jxI9mXc6o3aebhxS3wRtK5e6QW9DvhKzS-tFh27sqxAMUv3UmQfF01MW5C7m99L7mYk6LG8gGznIsO154HeIHcV15whjo5MskITun3kn3qrVVi8bN19rRPrCcBN5NqjYZFqbuR-xfjH_MVrRpOXzZWnUPZyFlrj-ilq0Sl-kqSHIIbNS05TIiYtylPn6pwR2uLZcwrU1WDArG3ElWFoKsaj1e0BuNr9YgbtmrWRwDId8UVnWnlmZr51RQDxFArX1fszfIciI748HGtieASUNVUqrVtLgUtsWCshB8iuPz6Vhl6APZ0MF6dxPtYzahumP0cRBndD4W_pJyBMQiePjdW3GNuLCh5Mw_36IdlR-GPcFEx4k_eQ0KbBSnXssc0uL9iJ13LaoZSle8AXlL5X5FHd2ZzGvtOOP4I_Xh2gDEhAGEFbnoR7Ri_JwJRGEyJfrowo9NJxAgplfO5drbu07RNepSJpiIST-IO7pvsjliIrGqyVmW_CVI0tDlTXol6n3r0EqNq0-wB22CYqbJWNJpCp_ypR3BZLU6bMH4GhSu_S4t80s1Dp0DOI50MQ7nekxeM07W6ekYUu_YHAXosMkUCkHaHLzQkD8aFAa8A69KCWFndsmznSs8y2K14Lh5QvgsFKoC_6VR_AJ1m3_I3FG3_CCT2FgXYum120YejapSWYh1-Ow0qstT4D1jgo34VEooWlcwyoMSAOHx03B7p6X9a3Gns-rtS7Yjy0Tr0e9DBeUH0uj6OonwGsTLHBRkh0n2mEkBCmbRQGtHzszdT9e9ry81XeWP0dlqxVcYuI6aQ91meJXMydryKSrvrKGKAkcQkQzzqMnrq2WzfTTZPzWC6UvcUaU40nVw3n-icEwXOdJ7Z9A_kbe_efbnR7YDX0NGOdddkQWUwPYSVy_8_DY5kVRstg0XE6YFRFZ_k9ZQqXFj-erOPLyxtJjxLsFr9PwcLi_vlMzmjpMY9Y0VeQbYozr_KgFh-GpuM6EV1jOnAiohCahzI7Q9nCbQWIDAx_DXudU_SV]--></g></svg>